<?xml version="1.0" encoding="utf-8"?>

    <svg version="1.1" id="Layer_1" xmlns="http://www.w3.org/2000/svg" xmlns:xlink="http://www.w3.org/1999/xlink" x="0px" y="0px" viewBox="0 0 116.4 116.4" style="enable-background:new 0 0 116.4 116.4;" xml:space="preserve">

    <style type="text/css">
        .fill {
            fill: #46509E;
        }

        @media (prefers-color-scheme: dark) {
            .fill {
                fill: #FFFFFF;
            }
        }
    </style>

    <g>
        <path class="fill" d="M116.4,116.4H0V0h116.4V116.4z M6.6,109.8h103.2V6.6H6.6V109.8z"/>
    </g>

    <g>
        <path class="fill" d="M69.3,56.9c0,9-0.2,14.8-0.5,17.2c-0.7,5.3-2.5,9.3-5.4,12.3c-4.2,4.2-9.9,6.3-17.3,6.3
            c-7.3,0-13.1-2.2-17.5-6.5c-2.7-2.7-4.5-6.3-5.2-10.8c-0.4-2.4-0.6-7.2-0.6-14.5v-36h6.3v42.1c0,3.9,0.2,6.6,0.5,8.3
            c0.5,2.9,1.8,5.3,3.7,7.2c3.1,3.1,7.5,4.7,13.1,4.7c5.1,0,9.1-1.4,12-4.3c2.2-2.2,3.6-4.9,4.1-8.2c0.3-2.2,0.5-7,0.5-14.6V24.9h6.3
            V56.9z"/>
        <path class="fill" d="M87.8,91.4h-6.4V24.9h6.4V91.4z"/>
    </g>

</svg>
