<?xml version="1.0" encoding="utf-8"?>
<svg version="1.1" id="Layer_1" xmlns="http://www.w3.org/2000/svg" xmlns:xlink="http://www.w3.org/1999/xlink" x="0px" y="0px"
	 viewBox="0 0 117.13 56.51" style="enable-background:new 0 0 117.13 56.51;" xml:space="preserve">
<style type="text/css">
	.st0{fill:#FFFFFF;}
</style>
<g>
	<g>
		<path class="st0" d="M7.88,42.28H0V0h7.88V42.28z"/>
		<path class="st0" d="M40.71,27.62c0,4.59-1.38,8.32-4.15,11.18c-2.77,2.86-6.37,4.29-10.8,4.29c-4.24,0-7.69-1.39-10.34-4.18
			c-2.65-2.78-3.97-6.4-3.97-10.83c0-4.48,1.39-8.16,4.18-11.04c2.78-2.88,6.36-4.32,10.72-4.32c4.24,0,7.7,1.39,10.37,4.18
			C39.37,19.69,40.71,23.26,40.71,27.62z M32.82,27.97c0-2.61-0.63-4.72-1.9-6.34c-1.27-1.62-2.91-2.42-4.94-2.42
			c-2.02,0-3.64,0.79-4.85,2.37c-1.21,1.58-1.81,3.65-1.81,6.22c0,2.61,0.64,4.72,1.93,6.34c1.28,1.62,2.96,2.42,5.02,2.42
			c2.02,0,3.62-0.78,4.79-2.34C32.24,32.67,32.82,30.58,32.82,27.97z"/>
		<path class="st0" d="M70.43,41.87c0,2.53-0.14,4.34-0.41,5.43c-0.39,1.79-1.28,3.39-2.69,4.79c-2.53,2.53-6.07,3.8-10.63,3.8
			c-3.39,0-6.48-0.64-9.29-1.93c-1.64-0.78-2.84-1.56-3.62-2.34l3.15-5.14c3.35,1.91,6.31,2.86,8.88,2.86c2.8,0,4.73-0.78,5.78-2.34
			c0.7-1.05,1.05-2.61,1.05-4.67v-1.81c-2.02,1.17-4.26,1.75-6.72,1.75c-4.13,0-7.38-1.46-9.75-4.38c-2.1-2.65-3.15-5.9-3.15-9.75
			c0-4.36,1.43-8.02,4.29-10.98c2.86-2.96,6.57-4.44,11.13-4.44c3.93,0,7.92,1.01,11.97,3.04V41.87z M62.66,34.52v-14.6
			c-1.36-0.58-2.8-0.88-4.32-0.88c-2.1,0-3.86,0.78-5.29,2.34c-1.42,1.56-2.13,3.68-2.13,6.37c0,2.57,0.66,4.58,1.99,6.04
			c1.32,1.46,2.94,2.19,4.85,2.19c1.05,0,2.16-0.21,3.33-0.64C61.91,34.98,62.43,34.71,62.66,34.52z"/>
	</g>
	<g>
		<path class="st0" d="M117.13,45.93H76.21V5.01h40.92V45.93z M78.54,43.59h36.25V7.35H78.54V43.59z"/>
	</g>
	<g>
		<path class="st0" d="M100.55,25c0,3.18-0.06,5.19-0.18,6.03c-0.23,1.85-0.86,3.28-1.89,4.31c-1.47,1.47-3.49,2.21-6.06,2.21
			c-2.57,0-4.61-0.76-6.13-2.28c-0.96-0.96-1.57-2.22-1.82-3.78c-0.14-0.84-0.21-2.53-0.21-5.08V13.75h2.21v14.79
			c0,1.36,0.06,2.32,0.18,2.91c0.19,1,0.62,1.85,1.3,2.52c1.1,1.1,2.63,1.65,4.59,1.65c1.8,0,3.2-0.5,4.21-1.51
			c0.77-0.77,1.25-1.73,1.44-2.87c0.12-0.77,0.18-2.48,0.18-5.12V13.75h2.21V25z"/>
		<path class="st0" d="M107.07,37.12h-2.24V13.75h2.24V37.12z"/>
	</g>
</g>
</svg>
