<?xml version="1.0" encoding="utf-8"?>

<!DOCTYPE svg PUBLIC "-//W3C//DTD SVG 1.1//EN" "http://www.w3.org/Graphics/SVG/1.1/DTD/svg11.dtd">
<svg version="1.1" xmlns="http://www.w3.org/2000/svg" xmlns:xlink="http://www.w3.org/1999/xlink" x="0px" y="0px"
	 viewBox="0 0 149.33 149.33" style="enable-background:new 0 0 149.33 149.33;" xml:space="preserve">
     
     <defs>
         <style>
             .icon {
                 display: none;
             }
             
             .icon:target {
                 display: inline;
             }
         </style>
     </defs>
     
<!-- Add Icon -->
<g class="icon" id="add-dark">
	<path fill="#46509E" d="M127.47,21.86c-29.15-29.15-76.47-29.15-105.61,0s-29.15,76.47,0,105.61s76.47,29.15,105.61,0S156.62,50.83,127.47,21.86z
		 M108.58,78.89c-1.08,1.08-2.7,1.8-4.32,1.8H80.87v23.39c0,1.62-0.72,3.24-1.8,4.32s-2.7,1.8-4.32,1.8c-3.42,0-6.12-2.7-6.12-6.12
		V80.69H45.25c-3.42,0-6.12-2.7-6.12-6.12c0-3.42,2.7-6.12,6.12-6.12h23.39V45.07c0-3.42,2.7-6.12,6.12-6.12l0,0
		c3.42,0,6.12,2.7,6.12,6.12v23.39h23.39c3.42,0,6.12,2.7,6.12,6.12C110.2,76.2,109.66,77.82,108.58,78.89z"/>
</g>

<g class="icon" id="add-light">
	<path fill="#FFFFFF" d="M127.47,21.86c-29.15-29.15-76.47-29.15-105.61,0s-29.15,76.47,0,105.61s76.47,29.15,105.61,0S156.62,50.83,127.47,21.86z
		 M108.58,78.89c-1.08,1.08-2.7,1.8-4.32,1.8H80.87v23.39c0,1.62-0.72,3.24-1.8,4.32s-2.7,1.8-4.32,1.8c-3.42,0-6.12-2.7-6.12-6.12
		V80.69H45.25c-3.42,0-6.12-2.7-6.12-6.12c0-3.42,2.7-6.12,6.12-6.12h23.39V45.07c0-3.42,2.7-6.12,6.12-6.12l0,0
		c3.42,0,6.12,2.7,6.12,6.12v23.39h23.39c3.42,0,6.12,2.7,6.12,6.12C110.2,76.2,109.66,77.82,108.58,78.89z"/>
</g>

<!-- User Icon -->
<g class="icon" id="user-dark">
    <path fill="#46509E" d="M74.66,0C33.49,0,0,33.49,0,74.67c0,41.17,33.49,74.66,74.66,74.66c41.18,0,74.67-33.49,74.67-74.66
        C149.33,33.49,115.84,0,74.66,0z M123.95,111.8c-6.47-6.56-22.03-13.69-49.28-13.69s-42.82,7.13-49.3,13.69
        c-7.82-10.35-12.51-23.19-12.51-37.13c0-34.08,27.72-61.8,61.8-61.8c34.08,0,61.81,27.73,61.81,61.8
        C136.47,88.62,131.78,101.45,123.95,111.8z"/>
    <ellipse fill="#46509E" transform="matrix(0.0825 -0.9966 0.9966 0.0825 9.7339 128.513)" cx="74.66" cy="58.97" rx="29.59" ry="29.59"/>
</g>

<g class="icon" id="user-light">
    <path fill="#FFFFFF" d="M74.66,0C33.49,0,0,33.49,0,74.67c0,41.17,33.49,74.66,74.66,74.66c41.18,0,74.67-33.49,74.67-74.66
        C149.33,33.49,115.84,0,74.66,0z M123.95,111.8c-6.47-6.56-22.03-13.69-49.28-13.69s-42.82,7.13-49.3,13.69
        c-7.82-10.35-12.51-23.19-12.51-37.13c0-34.08,27.72-61.8,61.8-61.8c34.08,0,61.81,27.73,61.81,61.8
        C136.47,88.62,131.78,101.45,123.95,111.8z"/>
    <ellipse fill="#FFFFFF" transform="matrix(0.0825 -0.9966 0.9966 0.0825 9.7339 128.513)" cx="74.66" cy="58.97" rx="29.59" ry="29.59"/>
</g>

<g class="icon" id="user-green">
    <path fill="#4A9B46" d="M74.66,0C33.49,0,0,33.49,0,74.67c0,41.17,33.49,74.66,74.66,74.66c41.18,0,74.67-33.49,74.67-74.66
        C149.33,33.49,115.84,0,74.66,0z M123.95,111.8c-6.47-6.56-22.03-13.69-49.28-13.69s-42.82,7.13-49.3,13.69
        c-7.82-10.35-12.51-23.19-12.51-37.13c0-34.08,27.72-61.8,61.8-61.8c34.08,0,61.81,27.73,61.81,61.8
        C136.47,88.62,131.78,101.45,123.95,111.8z"/>
    <ellipse fill="#4A9B46" transform="matrix(0.0825 -0.9966 0.9966 0.0825 9.7339 128.513)" cx="74.66" cy="58.97" rx="29.59" ry="29.59"/>
</g>

<!-- Application Icon -->
<g class="icon" id="application-dark">
	<polygon fill="#46509E" points="35.55,70.75 4.87,84.84 35.55,98.92 66.22,84.84 	"/>
	<polygon fill="#46509E" points="39.46,147.59 70.91,133.19 70.91,91.1 39.46,105.49 	"/>
	<polygon fill="#46509E" points="0.34,133.19 31.79,147.59 31.79,105.49 0.34,91.1 	"/>
	<polygon fill="#46509E" points="113.79,70.75 83.12,84.84 113.79,98.92 144.46,84.84 	"/>
	<polygon fill="#46509E" points="117.54,105.49 117.54,147.59 149,133.19 149,91.1 	"/>
	<polygon fill="#46509E" points="78.42,133.19 109.88,147.59 109.88,105.49 78.42,91.1 	"/>
	<polygon fill="#46509E" points="39.46,64.18 70.91,78.58 70.91,36.48 39.46,22.09 	"/>
	<polygon fill="#46509E" points="74.67,1.74 44,15.83 74.67,29.76 105.34,15.67 	"/>
	<polygon fill="#46509E" points="78.42,78.58 109.88,64.18 109.88,22.09 78.42,36.48 	"/>
</g>

<g class="icon" id="application-light">
	<polygon fill="#FFFFFF" points="35.55,70.75 4.87,84.84 35.55,98.92 66.22,84.84 	"/>
	<polygon fill="#FFFFFF" points="39.46,147.59 70.91,133.19 70.91,91.1 39.46,105.49 	"/>
	<polygon fill="#FFFFFF" points="0.34,133.19 31.79,147.59 31.79,105.49 0.34,91.1 	"/>
	<polygon fill="#FFFFFF" points="113.79,70.75 83.12,84.84 113.79,98.92 144.46,84.84 	"/>
	<polygon fill="#FFFFFF" points="117.54,105.49 117.54,147.59 149,133.19 149,91.1 	"/>
	<polygon fill="#FFFFFF" points="78.42,133.19 109.88,147.59 109.88,105.49 78.42,91.1 	"/>
	<polygon fill="#FFFFFF" points="39.46,64.18 70.91,78.58 70.91,36.48 39.46,22.09 	"/>
	<polygon fill="#FFFFFF" points="74.67,1.74 44,15.83 74.67,29.76 105.34,15.67 	"/>
	<polygon fill="#FFFFFF" points="78.42,78.58 109.88,64.18 109.88,22.09 78.42,36.48 	"/>
</g>

<!-- Settings Icon -->
<g class="icon" id="settings-dark">
	<path fill="#46509E" d="M106.1,92.9c-1.2-1.2-2.8-1.9-4.4-2c-3.2-0.3-6.5-1.5-9-4c-2.5-2.5-3.8-5.7-4-9c-0.1-1.6-0.8-3.2-2-4.4
		c-2.7-2.7-7-2.7-9.7,0l-4.3,4.3L28.5,34.6c0,0-2.1-1.8-2.5-3.4c-0.4-1.9-0.7-4.5-2.8-6.3c-3.8-3.3-10.1-8.4-14-11.2
		c-1.7-1.2-2.8-0.9-4,0.2l-3,3c-1.2,1.2-1.4,2.3-0.2,4c2.8,3.9,7.9,10.2,11.2,14c1.8,2.1,4.3,2.4,6.3,2.8c1.6,0.3,3.4,2.5,3.4,2.5
		L66,84.4l-4.3,4.3c-2.7,2.7-2.7,7,0,9.7c1.2,1.2,2.8,1.9,4.4,2c3.3,0.2,6.5,1.5,9,4c2.5,2.5,3.7,5.8,4,9c0.1,1.6,0.8,3.2,2,4.4
		l27.5,27.5c5.4,5.4,14.1,5.4,19.5,0l5.5-5.5c5.4-5.4,5.4-14.1,0-19.5L106.1,92.9z"/>
	<path fill="#46509E" d="M147.9,29.3l-25.8,14.2l-11.7-7.1l0.3-13.7L137.4,8C125-3.1,105.9-2.7,94,9.3c-7.6,7.6-10.5,18.1-8.8,28
		c0.4,2.3-0.2,4.8-2.1,6.7l-18,18l7.5,7.3l0,0c2.4-2.4,5.7-3.8,9.1-3.8c3.4,0,6.7,1.3,9.1,3.8c1.2,1.2,2.1,2.6,2.8,4.1l8.7-8.7
		c2-2,4.8-2.6,7.3-2c10,2.6,21.1-0.7,29-8.6C145.5,47.3,148.6,38.2,147.9,29.3z"/>
	<path fill="#46509E" d="M57.5,84.4L57.5,84.4l-7.3-7.5L7.2,119.9c-5.5,5.5-5.5,14.5,0,20c5.5,5.5,14.5,5.5,20,0l34.5-34.5c-1.5-0.6-2.9-1.6-4.1-2.8
		C52.5,97.6,52.5,89.5,57.5,84.4z"/>
</g>

<g class="icon" id="settings-light">
	<path fill="#FFFFFF" d="M106.1,92.9c-1.2-1.2-2.8-1.9-4.4-2c-3.2-0.3-6.5-1.5-9-4c-2.5-2.5-3.8-5.7-4-9c-0.1-1.6-0.8-3.2-2-4.4
		c-2.7-2.7-7-2.7-9.7,0l-4.3,4.3L28.5,34.6c0,0-2.1-1.8-2.5-3.4c-0.4-1.9-0.7-4.5-2.8-6.3c-3.8-3.3-10.1-8.4-14-11.2
		c-1.7-1.2-2.8-0.9-4,0.2l-3,3c-1.2,1.2-1.4,2.3-0.2,4c2.8,3.9,7.9,10.2,11.2,14c1.8,2.1,4.3,2.4,6.3,2.8c1.6,0.3,3.4,2.5,3.4,2.5
		L66,84.4l-4.3,4.3c-2.7,2.7-2.7,7,0,9.7c1.2,1.2,2.8,1.9,4.4,2c3.3,0.2,6.5,1.5,9,4c2.5,2.5,3.7,5.8,4,9c0.1,1.6,0.8,3.2,2,4.4
		l27.5,27.5c5.4,5.4,14.1,5.4,19.5,0l5.5-5.5c5.4-5.4,5.4-14.1,0-19.5L106.1,92.9z"/>
	<path fill="#FFFFFF" d="M147.9,29.3l-25.8,14.2l-11.7-7.1l0.3-13.7L137.4,8C125-3.1,105.9-2.7,94,9.3c-7.6,7.6-10.5,18.1-8.8,28
		c0.4,2.3-0.2,4.8-2.1,6.7l-18,18l7.5,7.3l0,0c2.4-2.4,5.7-3.8,9.1-3.8c3.4,0,6.7,1.3,9.1,3.8c1.2,1.2,2.1,2.6,2.8,4.1l8.7-8.7
		c2-2,4.8-2.6,7.3-2c10,2.6,21.1-0.7,29-8.6C145.5,47.3,148.6,38.2,147.9,29.3z"/>
	<path fill="#FFFFFF" d="M57.5,84.4L57.5,84.4l-7.3-7.5L7.2,119.9c-5.5,5.5-5.5,14.5,0,20c5.5,5.5,14.5,5.5,20,0l34.5-34.5c-1.5-0.6-2.9-1.6-4.1-2.8
		C52.5,97.6,52.5,89.5,57.5,84.4z"/>
</g>

<!-- About Icon -->
<g class="icon" id="about-dark">
	<path fill="#46509E" d="M74.7,0C33.4,0,0,33.4,0,74.7s33.4,74.7,74.7,74.7s74.7-33.4,74.7-74.7S115.9,0,74.7,0z M77.6,34.9c1.2-4.5,5.3-7.7,10-7.7
	c3.5-0.3,6.5,2.3,6.8,5.8c0.1,0.7,0,1.3-0.2,2c-1.2,4.5-5.3,7.7-10,7.7c-3.5,0.3-6.5-2.3-6.8-5.8C77.4,36.2,77.5,35.5,77.6,34.9z
	 M94.4,106.3c-4.7,5.6-10.4,10.2-16.8,13.5c-8.9,4.5-18.9,2.4-17.1-6.1l9.3-42.6c1.8-8.1-5.5-7.3-13.7-2.6c-0.4,0.2-0.9,0.1-1.1-0.3
	c-0.2-0.3-0.1-0.7,0.1-0.9c4.7-5.6,10.4-10.2,16.8-13.5c8.9-4.5,18.9-2.4,17.1,6.1l-9.3,42.6c-1.8,8.1,5.5,7.3,13.7,2.6
	c0.4-0.2,0.9-0.1,1.1,0.3C94.6,105.6,94.6,106,94.4,106.3z"/>
</g>

<g class="icon" id="about-light">
	<path fill="#FFFFFF" d="M74.7,0C33.4,0,0,33.4,0,74.7s33.4,74.7,74.7,74.7s74.7-33.4,74.7-74.7S115.9,0,74.7,0z M77.6,34.9c1.2-4.5,5.3-7.7,10-7.7
	c3.5-0.3,6.5,2.3,6.8,5.8c0.1,0.7,0,1.3-0.2,2c-1.2,4.5-5.3,7.7-10,7.7c-3.5,0.3-6.5-2.3-6.8-5.8C77.4,36.2,77.5,35.5,77.6,34.9z
	 M94.4,106.3c-4.7,5.6-10.4,10.2-16.8,13.5c-8.9,4.5-18.9,2.4-17.1-6.1l9.3-42.6c1.8-8.1-5.5-7.3-13.7-2.6c-0.4,0.2-0.9,0.1-1.1-0.3
	c-0.2-0.3-0.1-0.7,0.1-0.9c4.7-5.6,10.4-10.2,16.8-13.5c8.9-4.5,18.9-2.4,17.1,6.1l-9.3,42.6c-1.8,8.1,5.5,7.3,13.7,2.6
	c0.4-0.2,0.9-0.1,1.1,0.3C94.6,105.6,94.6,106,94.4,106.3z"/>
</g>

<!-- Key Icon -->
<g class="icon" id="key-dark">
	<path fill="#46509E" d="M107.3,0c-23.3,0-42,18.7-42,42c0,4.7,0.8,8.5,1.8,12.3L0,121.3v28h28v-18.7h18.7V112h18.7V93.3H84l11.1-11.1
		c3.7,0.9,7.6,1.8,12.3,1.8c23.3,0,42-18.7,42-42S130.7,0,107.3,0L107.3,0z M121.3,18.7c5.6,0,9.3,3.7,9.3,9.3s-3.7,9.3-9.3,9.3
		c-5.6,0-9.3-3.7-9.3-9.3S115.7,18.7,121.3,18.7z"/>
</g>

<g class="icon" id="key-light">
	<path fill="#FFFFFF" d="M107.3,0c-23.3,0-42,18.7-42,42c0,4.7,0.8,8.5,1.8,12.3L0,121.3v28h28v-18.7h18.7V112h18.7V93.3H84l11.1-11.1
		c3.7,0.9,7.6,1.8,12.3,1.8c23.3,0,42-18.7,42-42S130.7,0,107.3,0L107.3,0z M121.3,18.7c5.6,0,9.3,3.7,9.3,9.3s-3.7,9.3-9.3,9.3
		c-5.6,0-9.3-3.7-9.3-9.3S115.7,18.7,121.3,18.7z"/>
</g>

<!-- Token Icon -->
<g class="icon" id="token-dark">
	<path fill="#46509E" d="M74.5,0.3C33.4,0.3,0,33.7,0,74.8s33.4,74.5,74.5,74.5S149,115.9,149,74.8S115.6,0.3,74.5,0.3z M121.2,28.1
		c6.1,6.1,11,13.3,14.3,21.3l-13,5.3c-2.7-6.4-6.4-12.1-11.3-16.9L121.2,28.1z M74.5,8.8c8.9,0,17.6,1.9,25.2,5l-5.3,13
		c-6.1-2.5-12.9-3.9-19.9-3.9l0,0C74.5,22.9,74.5,8.8,74.5,8.8z M49.2,13.8l5.3,13c-6.3,2.7-12.1,6.4-16.9,11.3l-10-9.9
		C33.9,22,41.2,17.1,49.2,13.8z M13.5,49.6l13,5.3C24,61,22.6,67.8,22.6,74.8l0,0H8.5C8.5,65.9,10.2,57.3,13.5,49.6z M27.8,121.5
		c-6.1-6.1-11-13.3-14.3-21.5l13-5.3c2.7,6.4,6.4,12.1,11.3,16.9L27.8,121.5z M74.5,140.8c-8.9,0-17.4-1.7-25.2-5l5.3-13
		c6.1,2.5,12.9,3.9,19.9,3.9C74.5,126.7,74.5,140.8,74.5,140.8z M30.9,74.8c0-24,19.6-43.6,43.6-43.6s43.6,19.6,43.6,43.6
		s-19.4,43.6-43.6,43.6S30.9,98.8,30.9,74.8z M99.7,135.8l-5.3-13c6.3-2.7,12.1-6.4,16.8-11.3l10,9.9
		C115.1,127.7,107.9,132.5,99.7,135.8z M122.6,94.7c2.5-6.1,3.9-12.9,3.9-19.9h14.1c0,8.9-1.9,17.6-5,25.2L122.6,94.7z"/>
	<path fill="#46509E" d="M101,64l-15.2-3c-0.8-0.2-1.3-0.6-1.7-1.3l-7.5-13.5c-0.9-1.7-3.3-1.7-4.2,0l-7.5,13.5c-0.3,0.6-0.9,1.1-1.7,1.3l-15.2,3
		c-1.9,0.3-2.7,2.7-1.3,4.1l10.5,11.3c0.5,0.5,0.8,1.3,0.6,2L56,96.8c-0.2,1.9,1.7,3.3,3.4,2.5l14-6.6c0.6-0.3,1.4-0.3,2,0l14,6.6
		c1.7,0.8,3.8-0.6,3.4-2.5l-1.9-15.4c-0.2-0.8,0.2-1.4,0.6-2l10.5-11.3C103.6,66.7,102.9,64.5,101,64z"/>
</g>

<g class="icon" id="token-light">
	<path fill="#FFFFFF" d="M74.5,0.3C33.4,0.3,0,33.7,0,74.8s33.4,74.5,74.5,74.5S149,115.9,149,74.8S115.6,0.3,74.5,0.3z M121.2,28.1
		c6.1,6.1,11,13.3,14.3,21.3l-13,5.3c-2.7-6.4-6.4-12.1-11.3-16.9L121.2,28.1z M74.5,8.8c8.9,0,17.6,1.9,25.2,5l-5.3,13
		c-6.1-2.5-12.9-3.9-19.9-3.9l0,0C74.5,22.9,74.5,8.8,74.5,8.8z M49.2,13.8l5.3,13c-6.3,2.7-12.1,6.4-16.9,11.3l-10-9.9
		C33.9,22,41.2,17.1,49.2,13.8z M13.5,49.6l13,5.3C24,61,22.6,67.8,22.6,74.8l0,0H8.5C8.5,65.9,10.2,57.3,13.5,49.6z M27.8,121.5
		c-6.1-6.1-11-13.3-14.3-21.5l13-5.3c2.7,6.4,6.4,12.1,11.3,16.9L27.8,121.5z M74.5,140.8c-8.9,0-17.4-1.7-25.2-5l5.3-13
		c6.1,2.5,12.9,3.9,19.9,3.9C74.5,126.7,74.5,140.8,74.5,140.8z M30.9,74.8c0-24,19.6-43.6,43.6-43.6s43.6,19.6,43.6,43.6
		s-19.4,43.6-43.6,43.6S30.9,98.8,30.9,74.8z M99.7,135.8l-5.3-13c6.3-2.7,12.1-6.4,16.8-11.3l10,9.9
		C115.1,127.7,107.9,132.5,99.7,135.8z M122.6,94.7c2.5-6.1,3.9-12.9,3.9-19.9h14.1c0,8.9-1.9,17.6-5,25.2L122.6,94.7z"/>
	<path fill="#FFFFFF" d="M101,64l-15.2-3c-0.8-0.2-1.3-0.6-1.7-1.3l-7.5-13.5c-0.9-1.7-3.3-1.7-4.2,0l-7.5,13.5c-0.3,0.6-0.9,1.1-1.7,1.3l-15.2,3
		c-1.9,0.3-2.7,2.7-1.3,4.1l10.5,11.3c0.5,0.5,0.8,1.3,0.6,2L56,96.8c-0.2,1.9,1.7,3.3,3.4,2.5l14-6.6c0.6-0.3,1.4-0.3,2,0l14,6.6
		c1.7,0.8,3.8-0.6,3.4-2.5l-1.9-15.4c-0.2-0.8,0.2-1.4,0.6-2l10.5-11.3C103.6,66.7,102.9,64.5,101,64z"/>
</g>

<!-- Download Icon -->
<g class="icon" id="download-dark">
	<path fill="#46509E" d="M74.8,0.9c-41,0-74.2,33.2-74.2,74.2c0,41,33.2,74.2,74.2,74.2c41,0,74.2-33.2,74.2-74.2C149,34.1,115.8,0.9,74.8,0.9z
		 M74.8,114.9L39.2,74H57V35.3l35.7,0V74h17.8L74.8,114.9z"/>
</g>

<g class="icon" id="download-light">
	<path fill="#FFFFFF" d="M74.8,0.9c-41,0-74.2,33.2-74.2,74.2c0,41,33.2,74.2,74.2,74.2c41,0,74.2-33.2,74.2-74.2C149,34.1,115.8,0.9,74.8,0.9z
		 M74.8,114.9L39.2,74H57V35.3l35.7,0V74h17.8L74.8,114.9z"/>
</g>

</svg>
