<?xml version="1.0" encoding="utf-8"?>

<!DOCTYPE svg PUBLIC "-//W3C//DTD SVG 1.1//EN" "http://www.w3.org/Graphics/SVG/1.1/DTD/svg11.dtd">
<svg version="1.1" xmlns="http://www.w3.org/2000/svg" xmlns:xlink="http://www.w3.org/1999/xlink" x="0px" y="0px"
	 viewBox="0 0 149.33 149.33" style="enable-background:new 0 0 149.33 149.33;" xml:space="preserve">
     
     <defs>
         <style>
             .icon {
                 display: none;
             }
             
             .icon:target {
                 display: inline;
             }
         </style>
     </defs>
     
<!-- Add Icon -->
<g class="icon" id="add-dark">
	<path fill="#46509E" d="M127.47,21.86c-29.15-29.15-76.47-29.15-105.61,0s-29.15,76.47,0,105.61s76.47,29.15,105.61,0S156.62,50.83,127.47,21.86z
		 M108.58,78.89c-1.08,1.08-2.7,1.8-4.32,1.8H80.87v23.39c0,1.62-0.72,3.24-1.8,4.32s-2.7,1.8-4.32,1.8c-3.42,0-6.12-2.7-6.12-6.12
		V80.69H45.25c-3.42,0-6.12-2.7-6.12-6.12c0-3.42,2.7-6.12,6.12-6.12h23.39V45.07c0-3.42,2.7-6.12,6.12-6.12l0,0
		c3.42,0,6.12,2.7,6.12,6.12v23.39h23.39c3.42,0,6.12,2.7,6.12,6.12C110.2,76.2,109.66,77.82,108.58,78.89z"/>
</g>

<g class="icon" id="add-light">
	<path fill="#FFFFFF" d="M127.47,21.86c-29.15-29.15-76.47-29.15-105.61,0s-29.15,76.47,0,105.61s76.47,29.15,105.61,0S156.62,50.83,127.47,21.86z
		 M108.58,78.89c-1.08,1.08-2.7,1.8-4.32,1.8H80.87v23.39c0,1.62-0.72,3.24-1.8,4.32s-2.7,1.8-4.32,1.8c-3.42,0-6.12-2.7-6.12-6.12
		V80.69H45.25c-3.42,0-6.12-2.7-6.12-6.12c0-3.42,2.7-6.12,6.12-6.12h23.39V45.07c0-3.42,2.7-6.12,6.12-6.12l0,0
		c3.42,0,6.12,2.7,6.12,6.12v23.39h23.39c3.42,0,6.12,2.7,6.12,6.12C110.2,76.2,109.66,77.82,108.58,78.89z"/>
</g>

<!-- User Icon -->
<g class="icon" id="user-dark">
    <path fill="#46509E" d="M74.66,0C33.49,0,0,33.49,0,74.67c0,41.17,33.49,74.66,74.66,74.66c41.18,0,74.67-33.49,74.67-74.66
        C149.33,33.49,115.84,0,74.66,0z M123.95,111.8c-6.47-6.56-22.03-13.69-49.28-13.69s-42.82,7.13-49.3,13.69
        c-7.82-10.35-12.51-23.19-12.51-37.13c0-34.08,27.72-61.8,61.8-61.8c34.08,0,61.81,27.73,61.81,61.8
        C136.47,88.62,131.78,101.45,123.95,111.8z"/>
    <ellipse fill="#46509E" transform="matrix(0.0825 -0.9966 0.9966 0.0825 9.7339 128.513)" cx="74.66" cy="58.97" rx="29.59" ry="29.59"/>
</g>

<g class="icon" id="user-light">
    <path fill="#FFFFFF" d="M74.66,0C33.49,0,0,33.49,0,74.67c0,41.17,33.49,74.66,74.66,74.66c41.18,0,74.67-33.49,74.67-74.66
        C149.33,33.49,115.84,0,74.66,0z M123.95,111.8c-6.47-6.56-22.03-13.69-49.28-13.69s-42.82,7.13-49.3,13.69
        c-7.82-10.35-12.51-23.19-12.51-37.13c0-34.08,27.72-61.8,61.8-61.8c34.08,0,61.81,27.73,61.81,61.8
        C136.47,88.62,131.78,101.45,123.95,111.8z"/>
    <ellipse fill="#FFFFFF" transform="matrix(0.0825 -0.9966 0.9966 0.0825 9.7339 128.513)" cx="74.66" cy="58.97" rx="29.59" ry="29.59"/>
</g>

<g class="icon" id="user-green">
    <path fill="#4A9B46" d="M74.66,0C33.49,0,0,33.49,0,74.67c0,41.17,33.49,74.66,74.66,74.66c41.18,0,74.67-33.49,74.67-74.66
        C149.33,33.49,115.84,0,74.66,0z M123.95,111.8c-6.47-6.56-22.03-13.69-49.28-13.69s-42.82,7.13-49.3,13.69
        c-7.82-10.35-12.51-23.19-12.51-37.13c0-34.08,27.72-61.8,61.8-61.8c34.08,0,61.81,27.73,61.81,61.8
        C136.47,88.62,131.78,101.45,123.95,111.8z"/>
    <ellipse fill="#4A9B46" transform="matrix(0.0825 -0.9966 0.9966 0.0825 9.7339 128.513)" cx="74.66" cy="58.97" rx="29.59" ry="29.59"/>
</g>

<!-- Application Icon -->
<g class="icon" id="application-dark">
	<polygon fill="#46509E" points="35.55,70.75 4.87,84.84 35.55,98.92 66.22,84.84 	"/>
	<polygon fill="#46509E" points="39.46,147.59 70.91,133.19 70.91,91.1 39.46,105.49 	"/>
	<polygon fill="#46509E" points="0.34,133.19 31.79,147.59 31.79,105.49 0.34,91.1 	"/>
	<polygon fill="#46509E" points="113.79,70.75 83.12,84.84 113.79,98.92 144.46,84.84 	"/>
	<polygon fill="#46509E" points="117.54,105.49 117.54,147.59 149,133.19 149,91.1 	"/>
	<polygon fill="#46509E" points="78.42,133.19 109.88,147.59 109.88,105.49 78.42,91.1 	"/>
	<polygon fill="#46509E" points="39.46,64.18 70.91,78.58 70.91,36.48 39.46,22.09 	"/>
	<polygon fill="#46509E" points="74.67,1.74 44,15.83 74.67,29.76 105.34,15.67 	"/>
	<polygon fill="#46509E" points="78.42,78.58 109.88,64.18 109.88,22.09 78.42,36.48 	"/>
</g>

<g class="icon" id="application-light">
	<polygon fill="#FFFFFF" points="35.55,70.75 4.87,84.84 35.55,98.92 66.22,84.84 	"/>
	<polygon fill="#FFFFFF" points="39.46,147.59 70.91,133.19 70.91,91.1 39.46,105.49 	"/>
	<polygon fill="#FFFFFF" points="0.34,133.19 31.79,147.59 31.79,105.49 0.34,91.1 	"/>
	<polygon fill="#FFFFFF" points="113.79,70.75 83.12,84.84 113.79,98.92 144.46,84.84 	"/>
	<polygon fill="#FFFFFF" points="117.54,105.49 117.54,147.59 149,133.19 149,91.1 	"/>
	<polygon fill="#FFFFFF" points="78.42,133.19 109.88,147.59 109.88,105.49 78.42,91.1 	"/>
	<polygon fill="#FFFFFF" points="39.46,64.18 70.91,78.58 70.91,36.48 39.46,22.09 	"/>
	<polygon fill="#FFFFFF" points="74.67,1.74 44,15.83 74.67,29.76 105.34,15.67 	"/>
	<polygon fill="#FFFFFF" points="78.42,78.58 109.88,64.18 109.88,22.09 78.42,36.48 	"/>
</g>

<!-- Settings Icon -->
<g class="icon" id="settings-dark">
	<path fill="#46509E" d="M106.1,92.9c-1.2-1.2-2.8-1.9-4.4-2c-3.2-0.3-6.5-1.5-9-4c-2.5-2.5-3.8-5.7-4-9c-0.1-1.6-0.8-3.2-2-4.4
		c-2.7-2.7-7-2.7-9.7,0l-4.3,4.3L28.5,34.6c0,0-2.1-1.8-2.5-3.4c-0.4-1.9-0.7-4.5-2.8-6.3c-3.8-3.3-10.1-8.4-14-11.2
		c-1.7-1.2-2.8-0.9-4,0.2l-3,3c-1.2,1.2-1.4,2.3-0.2,4c2.8,3.9,7.9,10.2,11.2,14c1.8,2.1,4.3,2.4,6.3,2.8c1.6,0.3,3.4,2.5,3.4,2.5
		L66,84.4l-4.3,4.3c-2.7,2.7-2.7,7,0,9.7c1.2,1.2,2.8,1.9,4.4,2c3.3,0.2,6.5,1.5,9,4c2.5,2.5,3.7,5.8,4,9c0.1,1.6,0.8,3.2,2,4.4
		l27.5,27.5c5.4,5.4,14.1,5.4,19.5,0l5.5-5.5c5.4-5.4,5.4-14.1,0-19.5L106.1,92.9z"/>
	<path fill="#46509E" d="M147.9,29.3l-25.8,14.2l-11.7-7.1l0.3-13.7L137.4,8C125-3.1,105.9-2.7,94,9.3c-7.6,7.6-10.5,18.1-8.8,28
		c0.4,2.3-0.2,4.8-2.1,6.7l-18,18l7.5,7.3l0,0c2.4-2.4,5.7-3.8,9.1-3.8c3.4,0,6.7,1.3,9.1,3.8c1.2,1.2,2.1,2.6,2.8,4.1l8.7-8.7
		c2-2,4.8-2.6,7.3-2c10,2.6,21.1-0.7,29-8.6C145.5,47.3,148.6,38.2,147.9,29.3z"/>
	<path fill="#46509E" d="M57.5,84.4L57.5,84.4l-7.3-7.5L7.2,119.9c-5.5,5.5-5.5,14.5,0,20c5.5,5.5,14.5,5.5,20,0l34.5-34.5c-1.5-0.6-2.9-1.6-4.1-2.8
		C52.5,97.6,52.5,89.5,57.5,84.4z"/>
</g>

<g class="icon" id="settings-light">
	<path fill="#FFFFFF" d="M106.1,92.9c-1.2-1.2-2.8-1.9-4.4-2c-3.2-0.3-6.5-1.5-9-4c-2.5-2.5-3.8-5.7-4-9c-0.1-1.6-0.8-3.2-2-4.4
		c-2.7-2.7-7-2.7-9.7,0l-4.3,4.3L28.5,34.6c0,0-2.1-1.8-2.5-3.4c-0.4-1.9-0.7-4.5-2.8-6.3c-3.8-3.3-10.1-8.4-14-11.2
		c-1.7-1.2-2.8-0.9-4,0.2l-3,3c-1.2,1.2-1.4,2.3-0.2,4c2.8,3.9,7.9,10.2,11.2,14c1.8,2.1,4.3,2.4,6.3,2.8c1.6,0.3,3.4,2.5,3.4,2.5
		L66,84.4l-4.3,4.3c-2.7,2.7-2.7,7,0,9.7c1.2,1.2,2.8,1.9,4.4,2c3.3,0.2,6.5,1.5,9,4c2.5,2.5,3.7,5.8,4,9c0.1,1.6,0.8,3.2,2,4.4
		l27.5,27.5c5.4,5.4,14.1,5.4,19.5,0l5.5-5.5c5.4-5.4,5.4-14.1,0-19.5L106.1,92.9z"/>
	<path fill="#FFFFFF" d="M147.9,29.3l-25.8,14.2l-11.7-7.1l0.3-13.7L137.4,8C125-3.1,105.9-2.7,94,9.3c-7.6,7.6-10.5,18.1-8.8,28
		c0.4,2.3-0.2,4.8-2.1,6.7l-18,18l7.5,7.3l0,0c2.4-2.4,5.7-3.8,9.1-3.8c3.4,0,6.7,1.3,9.1,3.8c1.2,1.2,2.1,2.6,2.8,4.1l8.7-8.7
		c2-2,4.8-2.6,7.3-2c10,2.6,21.1-0.7,29-8.6C145.5,47.3,148.6,38.2,147.9,29.3z"/>
	<path fill="#FFFFFF" d="M57.5,84.4L57.5,84.4l-7.3-7.5L7.2,119.9c-5.5,5.5-5.5,14.5,0,20c5.5,5.5,14.5,5.5,20,0l34.5-34.5c-1.5-0.6-2.9-1.6-4.1-2.8
		C52.5,97.6,52.5,89.5,57.5,84.4z"/>
</g>

<!-- About Icon -->
<g class="icon" id="about-dark">
	<path fill="#46509E" d="M74.7,0C33.4,0,0,33.4,0,74.7s33.4,74.7,74.7,74.7s74.7-33.4,74.7-74.7S115.9,0,74.7,0z M77.6,34.9c1.2-4.5,5.3-7.7,10-7.7
	c3.5-0.3,6.5,2.3,6.8,5.8c0.1,0.7,0,1.3-0.2,2c-1.2,4.5-5.3,7.7-10,7.7c-3.5,0.3-6.5-2.3-6.8-5.8C77.4,36.2,77.5,35.5,77.6,34.9z
	 M94.4,106.3c-4.7,5.6-10.4,10.2-16.8,13.5c-8.9,4.5-18.9,2.4-17.1-6.1l9.3-42.6c1.8-8.1-5.5-7.3-13.7-2.6c-0.4,0.2-0.9,0.1-1.1-0.3
	c-0.2-0.3-0.1-0.7,0.1-0.9c4.7-5.6,10.4-10.2,16.8-13.5c8.9-4.5,18.9-2.4,17.1,6.1l-9.3,42.6c-1.8,8.1,5.5,7.3,13.7,2.6
	c0.4-0.2,0.9-0.1,1.1,0.3C94.6,105.6,94.6,106,94.4,106.3z"/>
</g>

<g class="icon" id="about-light">
	<path fill="#FFFFFF" d="M74.7,0C33.4,0,0,33.4,0,74.7s33.4,74.7,74.7,74.7s74.7-33.4,74.7-74.7S115.9,0,74.7,0z M77.6,34.9c1.2-4.5,5.3-7.7,10-7.7
	c3.5-0.3,6.5,2.3,6.8,5.8c0.1,0.7,0,1.3-0.2,2c-1.2,4.5-5.3,7.7-10,7.7c-3.5,0.3-6.5-2.3-6.8-5.8C77.4,36.2,77.5,35.5,77.6,34.9z
	 M94.4,106.3c-4.7,5.6-10.4,10.2-16.8,13.5c-8.9,4.5-18.9,2.4-17.1-6.1l9.3-42.6c1.8-8.1-5.5-7.3-13.7-2.6c-0.4,0.2-0.9,0.1-1.1-0.3
	c-0.2-0.3-0.1-0.7,0.1-0.9c4.7-5.6,10.4-10.2,16.8-13.5c8.9-4.5,18.9-2.4,17.1,6.1l-9.3,42.6c-1.8,8.1,5.5,7.3,13.7,2.6
	c0.4-0.2,0.9-0.1,1.1,0.3C94.6,105.6,94.6,106,94.4,106.3z"/>
</g>

<!-- Key Icon -->
<g class="icon" id="key-dark">
	<path fill="#46509E" d="M107.3,0c-23.3,0-42,18.7-42,42c0,4.7,0.8,8.5,1.8,12.3L0,121.3v28h28v-18.7h18.7V112h18.7V93.3H84l11.1-11.1
		c3.7,0.9,7.6,1.8,12.3,1.8c23.3,0,42-18.7,42-42S130.7,0,107.3,0L107.3,0z M121.3,18.7c5.6,0,9.3,3.7,9.3,9.3s-3.7,9.3-9.3,9.3
		c-5.6,0-9.3-3.7-9.3-9.3S115.7,18.7,121.3,18.7z"/>
</g>

<g class="icon" id="key-light">
	<path fill="#FFFFFF" d="M107.3,0c-23.3,0-42,18.7-42,42c0,4.7,0.8,8.5,1.8,12.3L0,121.3v28h28v-18.7h18.7V112h18.7V93.3H84l11.1-11.1
		c3.7,0.9,7.6,1.8,12.3,1.8c23.3,0,42-18.7,42-42S130.7,0,107.3,0L107.3,0z M121.3,18.7c5.6,0,9.3,3.7,9.3,9.3s-3.7,9.3-9.3,9.3
		c-5.6,0-9.3-3.7-9.3-9.3S115.7,18.7,121.3,18.7z"/>
</g>

<!-- Token Icon -->
<g class="icon" id="token-dark">
	<path fill="#46509E" d="M74.5,0.3C33.4,0.3,0,33.7,0,74.8s33.4,74.5,74.5,74.5S149,115.9,149,74.8S115.6,0.3,74.5,0.3z M121.2,28.1
		c6.1,6.1,11,13.3,14.3,21.3l-13,5.3c-2.7-6.4-6.4-12.1-11.3-16.9L121.2,28.1z M74.5,8.8c8.9,0,17.6,1.9,25.2,5l-5.3,13
		c-6.1-2.5-12.9-3.9-19.9-3.9l0,0C74.5,22.9,74.5,8.8,74.5,8.8z M49.2,13.8l5.3,13c-6.3,2.7-12.1,6.4-16.9,11.3l-10-9.9
		C33.9,22,41.2,17.1,49.2,13.8z M13.5,49.6l13,5.3C24,61,22.6,67.8,22.6,74.8l0,0H8.5C8.5,65.9,10.2,57.3,13.5,49.6z M27.8,121.5
		c-6.1-6.1-11-13.3-14.3-21.5l13-5.3c2.7,6.4,6.4,12.1,11.3,16.9L27.8,121.5z M74.5,140.8c-8.9,0-17.4-1.7-25.2-5l5.3-13
		c6.1,2.5,12.9,3.9,19.9,3.9C74.5,126.7,74.5,140.8,74.5,140.8z M30.9,74.8c0-24,19.6-43.6,43.6-43.6s43.6,19.6,43.6,43.6
		s-19.4,43.6-43.6,43.6S30.9,98.8,30.9,74.8z M99.7,135.8l-5.3-13c6.3-2.7,12.1-6.4,16.8-11.3l10,9.9
		C115.1,127.7,107.9,132.5,99.7,135.8z M122.6,94.7c2.5-6.1,3.9-12.9,3.9-19.9h14.1c0,8.9-1.9,17.6-5,25.2L122.6,94.7z"/>
	<path fill="#46509E" d="M101,64l-15.2-3c-0.8-0.2-1.3-0.6-1.7-1.3l-7.5-13.5c-0.9-1.7-3.3-1.7-4.2,0l-7.5,13.5c-0.3,0.6-0.9,1.1-1.7,1.3l-15.2,3
		c-1.9,0.3-2.7,2.7-1.3,4.1l10.5,11.3c0.5,0.5,0.8,1.3,0.6,2L56,96.8c-0.2,1.9,1.7,3.3,3.4,2.5l14-6.6c0.6-0.3,1.4-0.3,2,0l14,6.6
		c1.7,0.8,3.8-0.6,3.4-2.5l-1.9-15.4c-0.2-0.8,0.2-1.4,0.6-2l10.5-11.3C103.6,66.7,102.9,64.5,101,64z"/>
</g>

<g class="icon" id="token-light">
	<path fill="#FFFFFF" d="M74.5,0.3C33.4,0.3,0,33.7,0,74.8s33.4,74.5,74.5,74.5S149,115.9,149,74.8S115.6,0.3,74.5,0.3z M121.2,28.1
		c6.1,6.1,11,13.3,14.3,21.3l-13,5.3c-2.7-6.4-6.4-12.1-11.3-16.9L121.2,28.1z M74.5,8.8c8.9,0,17.6,1.9,25.2,5l-5.3,13
		c-6.1-2.5-12.9-3.9-19.9-3.9l0,0C74.5,22.9,74.5,8.8,74.5,8.8z M49.2,13.8l5.3,13c-6.3,2.7-12.1,6.4-16.9,11.3l-10-9.9
		C33.9,22,41.2,17.1,49.2,13.8z M13.5,49.6l13,5.3C24,61,22.6,67.8,22.6,74.8l0,0H8.5C8.5,65.9,10.2,57.3,13.5,49.6z M27.8,121.5
		c-6.1-6.1-11-13.3-14.3-21.5l13-5.3c2.7,6.4,6.4,12.1,11.3,16.9L27.8,121.5z M74.5,140.8c-8.9,0-17.4-1.7-25.2-5l5.3-13
		c6.1,2.5,12.9,3.9,19.9,3.9C74.5,126.7,74.5,140.8,74.5,140.8z M30.9,74.8c0-24,19.6-43.6,43.6-43.6s43.6,19.6,43.6,43.6
		s-19.4,43.6-43.6,43.6S30.9,98.8,30.9,74.8z M99.7,135.8l-5.3-13c6.3-2.7,12.1-6.4,16.8-11.3l10,9.9
		C115.1,127.7,107.9,132.5,99.7,135.8z M122.6,94.7c2.5-6.1,3.9-12.9,3.9-19.9h14.1c0,8.9-1.9,17.6-5,25.2L122.6,94.7z"/>
	<path fill="#FFFFFF" d="M101,64l-15.2-3c-0.8-0.2-1.3-0.6-1.7-1.3l-7.5-13.5c-0.9-1.7-3.3-1.7-4.2,0l-7.5,13.5c-0.3,0.6-0.9,1.1-1.7,1.3l-15.2,3
		c-1.9,0.3-2.7,2.7-1.3,4.1l10.5,11.3c0.5,0.5,0.8,1.3,0.6,2L56,96.8c-0.2,1.9,1.7,3.3,3.4,2.5l14-6.6c0.6-0.3,1.4-0.3,2,0l14,6.6
		c1.7,0.8,3.8-0.6,3.4-2.5l-1.9-15.4c-0.2-0.8,0.2-1.4,0.6-2l10.5-11.3C103.6,66.7,102.9,64.5,101,64z"/>
</g>

<!-- Download Icon -->
<g class="icon" id="download-dark">
	<path fill="#46509E" d="M74.8,0.9c-41,0-74.2,33.2-74.2,74.2c0,41,33.2,74.2,74.2,74.2c41,0,74.2-33.2,74.2-74.2C149,34.1,115.8,0.9,74.8,0.9z
		 M74.8,114.9L39.2,74H57V35.3l35.7,0V74h17.8L74.8,114.9z"/>
</g>

<g class="icon" id="download-light">
	<path fill="#FFFFFF" d="M74.8,0.9c-41,0-74.2,33.2-74.2,74.2c0,41,33.2,74.2,74.2,74.2c41,0,74.2-33.2,74.2-74.2C149,34.1,115.8,0.9,74.8,0.9z
		 M74.8,114.9L39.2,74H57V35.3l35.7,0V74h17.8L74.8,114.9z"/>
</g>

<!-- Firefox Icon -->
<g class="icon" id="firefox-dark">
	<path fill="#45609E" d="M146.3,68.3L146.3,68.3c-0.2-1.3-0.4-2.1-0.4-2.1s-0.5,0.6-1.4,1.8c-0.3-3.2-0.9-6.4-1.7-9.5c-1.1-3.9-2.6-7.6-4.4-11.3
		c-1.1-2.4-2.5-4.7-4-6.9c-0.5-0.8-1.1-1.6-1.7-2.4c-2.7-4.3-5.7-7-9.2-12c-2.3-3.9-3.9-8.1-4.6-12.5c-1,2.7-1.7,5.4-2.2,8.2
		c-3.6-3.7-6.8-6.3-8.7-8c-9.4-8.8-8.3-13.3-8.3-13.3l0,0c0,0-17.6,19.6-9.9,40c2.6,6.9,7.2,13,13.1,17.4c7.4,6.1,15.3,10.8,19.5,23
		c-3.4-6.4-8.4-11.8-14.7-15.5c1.9,4.4,2.8,9.2,2.8,14c0,18.4-14.9,33.2-33.3,33.2c-2.5,0-5-0.3-7.4-0.8c-2.9-0.5-5.6-1.5-8.2-2.8
		c-3.9-2.3-7.2-5.4-9.9-9.1l0-0.1l0.6,0.2c1.4,0.5,2.8,0.9,4.2,1.1c5.6,1.2,11.5,0.5,16.7-2c5.3-2.9,8.4-5.1,11-4.2h0
		c2.5,0.8,4.5-1.6,2.7-4.2c-3.1-4.1-8.2-6.1-13.3-5.2c-5.3,0.8-10.1,4.5-17,0.9c-0.4-0.2-0.9-0.5-1.3-0.8c-0.5-0.3,1.5,0.4,1,0.1
		c-1.5-0.8-3-1.6-4.3-2.6c-0.1-0.1,1,0.3,0.9,0.2c-1.8-1.2-3.3-2.8-4.5-4.6c-1.2-2.2-1.4-4.9-0.3-7.3c0.6-1.1,1.6-2.1,2.8-2.6
		c0.9,0.4,1.4,0.8,1.4,0.8s-0.4-0.7-0.6-1.1c0.1,0,0.1,0,0.2-0.1c0.8,0.3,2.5,1.2,3.4,1.8c0.6,0.3,1.2,0.8,1.6,1.4
		c0,0,0.3-0.2,0.1-0.8c-0.3-0.8-0.9-1.5-1.6-2h0.1c0.7,0.4,1.4,0.8,2,1.2c0.6-1.3,0.8-2.8,0.8-4.2c0.1-0.8,0-1.6-0.3-2.3
		c-0.2-0.5,0.1-0.7,0.6-0.2c-0.1-0.4-0.2-0.8-0.4-1.1v0l0,0c0,0,0.2-0.3,0.4-0.4c0.3-0.3,0.6-0.6,1-0.8c2.2-1.3,4.5-2.5,6.8-3.5
		c1.9-0.8,3.5-1.5,3.9-1.7c0.5-0.3,0.9-0.7,1.4-1.1c1.6-1.4,2.7-3.2,3.1-5.3c0-0.3,0.1-0.6,0.1-0.8v-0.2v-0.1l0,0V48l0,0V48l0,0
		c-0.3-1.1-2.1-1.8-11.6-2.7c-3.3-0.5-6-3-6.8-6.3v0c-0.1,0.3-0.3,0.7-0.4,1.1c0.1-0.4,0.2-0.7,0.4-1.1v-0.1c1.8-4.7,5-8.7,9.3-11.5
		c0.2-0.2-1,0.1-0.7-0.1c0.8-0.4,1.6-0.7,2.5-1c0.4-0.2-1.8-1-3.8-0.8c-1.2,0.1-2.4,0.3-3.5,0.8c0.5-0.4,1.9-0.9,1.5-0.9
		c-2.5,0.5-5,1.4-7.2,2.7c0-0.2,0-0.4,0.1-0.7c-1.8,0.8-3.3,1.9-4.5,3.5c0-0.3,0-0.5,0-0.8c-0.8,0.6-1.6,1.3-2.2,2.1l0,0
		c-5.2-2-10.9-2.5-16.4-1.4l0,0h0.1c-1.1-0.9-2.1-2-2.9-3.3l-0.1,0l-0.1-0.1c-0.4-0.5-0.7-1.1-1.1-1.8c-0.3-0.5-0.5-1-0.8-1.6
		c0,0,0-0.1-0.1-0.1c-0.1,0-0.2,0.5-0.3,0.4v0c-1-2.5-1.4-5.2-1.3-7.9l-0.1,0c-1.5,1.1-2.7,2.6-3.3,4.4c-0.3,0.6-0.5,1-0.7,1.3
		c0,0,0,0,0-0.2c0-0.3,0.2-1,0.1-0.9s-0.1,0.1-0.1,0.1c-0.5,0.5-0.9,1.1-1.2,1.7c-0.3,0.6-0.5,1.2-0.7,1.8c0,0.1,0-0.1,0-0.3
		s0-0.6,0-0.5L18.7,24c-2,4.5-3.3,9.3-3.7,14.2c-0.1,0.8-0.2,1.7-0.1,2.5v0.1c-1.4,1.6-2.7,3.3-3.8,5.1C7.4,52,4.7,58.7,3,65.6
		C4.2,63,5.6,60.4,7.3,58c-3.2,8.2-4.9,16.9-4.9,25.7c0.5-2.6,1.3-5.1,2.1-7.6C4,86.5,6,96.8,10.4,106.3
		c5.8,13.1,15.5,24.1,27.8,31.5l0,0c5,3.4,10.4,6,16.2,7.8c0.8,0.3,1.5,0.5,2.3,0.8c-0.2-0.1-0.5-0.2-0.7-0.3c6.8,2,13.9,3.1,21,3.1
		c25.2,0,33.5-9.6,34.3-10.5l0,0c1.2-1.1,2.3-2.5,3-4l0,0c0.5-0.2,1-0.4,1.5-0.6l0.3-0.1l0.6-0.3c3.8-1.8,7.4-4,10.6-6.7
		c4.9-3.5,8.4-8.6,9.9-14.5l0,0c0.9-2.1,0.9-4.5,0.1-6.7c0.3-0.4,0.5-0.8,0.8-1.3c5.4-8.7,8.5-18.6,8.9-28.9v0c0-0.3,0-0.6,0-0.8
		C146.9,72.6,146.7,70.4,146.3,68.3z"/>
</g>

<g class="icon" id="firefox-light">
	<path fill="#FFFFFF" d="M146.3,68.3L146.3,68.3c-0.2-1.3-0.4-2.1-0.4-2.1s-0.5,0.6-1.4,1.8c-0.3-3.2-0.9-6.4-1.7-9.5c-1.1-3.9-2.6-7.6-4.4-11.3
		c-1.1-2.4-2.5-4.7-4-6.9c-0.5-0.8-1.1-1.6-1.7-2.4c-2.7-4.3-5.7-7-9.2-12c-2.3-3.9-3.9-8.1-4.6-12.5c-1,2.7-1.7,5.4-2.2,8.2
		c-3.6-3.7-6.8-6.3-8.7-8c-9.4-8.8-8.3-13.3-8.3-13.3l0,0c0,0-17.6,19.6-9.9,40c2.6,6.9,7.2,13,13.1,17.4c7.4,6.1,15.3,10.8,19.5,23
		c-3.4-6.4-8.4-11.8-14.7-15.5c1.9,4.4,2.8,9.2,2.8,14c0,18.4-14.9,33.2-33.3,33.2c-2.5,0-5-0.3-7.4-0.8c-2.9-0.5-5.6-1.5-8.2-2.8
		c-3.9-2.3-7.2-5.4-9.9-9.1l0-0.1l0.6,0.2c1.4,0.5,2.8,0.9,4.2,1.1c5.6,1.2,11.5,0.5,16.7-2c5.3-2.9,8.4-5.1,11-4.2h0
		c2.5,0.8,4.5-1.6,2.7-4.2c-3.1-4.1-8.2-6.1-13.3-5.2c-5.3,0.8-10.1,4.5-17,0.9c-0.4-0.2-0.9-0.5-1.3-0.8c-0.5-0.3,1.5,0.4,1,0.1
		c-1.5-0.8-3-1.6-4.3-2.6c-0.1-0.1,1,0.3,0.9,0.2c-1.8-1.2-3.3-2.8-4.5-4.6c-1.2-2.2-1.4-4.9-0.3-7.3c0.6-1.1,1.6-2.1,2.8-2.6
		c0.9,0.4,1.4,0.8,1.4,0.8s-0.4-0.7-0.6-1.1c0.1,0,0.1,0,0.2-0.1c0.8,0.3,2.5,1.2,3.4,1.8c0.6,0.3,1.2,0.8,1.6,1.4
		c0,0,0.3-0.2,0.1-0.8c-0.3-0.8-0.9-1.5-1.6-2h0.1c0.7,0.4,1.4,0.8,2,1.2c0.6-1.3,0.8-2.8,0.8-4.2c0.1-0.8,0-1.6-0.3-2.3
		c-0.2-0.5,0.1-0.7,0.6-0.2c-0.1-0.4-0.2-0.8-0.4-1.1v0l0,0c0,0,0.2-0.3,0.4-0.4c0.3-0.3,0.6-0.6,1-0.8c2.2-1.3,4.5-2.5,6.8-3.5
		c1.9-0.8,3.5-1.5,3.9-1.7c0.5-0.3,0.9-0.7,1.4-1.1c1.6-1.4,2.7-3.2,3.1-5.3c0-0.3,0.1-0.6,0.1-0.8v-0.2v-0.1l0,0V48l0,0V48l0,0
		c-0.3-1.1-2.1-1.8-11.6-2.7c-3.3-0.5-6-3-6.8-6.3v0c-0.1,0.3-0.3,0.7-0.4,1.1c0.1-0.4,0.2-0.7,0.4-1.1v-0.1c1.8-4.7,5-8.7,9.3-11.5
		c0.2-0.2-1,0.1-0.7-0.1c0.8-0.4,1.6-0.7,2.5-1c0.4-0.2-1.8-1-3.8-0.8c-1.2,0.1-2.4,0.3-3.5,0.8c0.5-0.4,1.9-0.9,1.5-0.9
		c-2.5,0.5-5,1.4-7.2,2.7c0-0.2,0-0.4,0.1-0.7c-1.8,0.8-3.3,1.9-4.5,3.5c0-0.3,0-0.5,0-0.8c-0.8,0.6-1.6,1.3-2.2,2.1l0,0
		c-5.2-2-10.9-2.5-16.4-1.4l0,0h0.1c-1.1-0.9-2.1-2-2.9-3.3l-0.1,0l-0.1-0.1c-0.4-0.5-0.7-1.1-1.1-1.8c-0.3-0.5-0.5-1-0.8-1.6
		c0,0,0-0.1-0.1-0.1c-0.1,0-0.2,0.5-0.3,0.4v0c-1-2.5-1.4-5.2-1.3-7.9l-0.1,0c-1.5,1.1-2.7,2.6-3.3,4.4c-0.3,0.6-0.5,1-0.7,1.3
		c0,0,0,0,0-0.2c0-0.3,0.2-1,0.1-0.9s-0.1,0.1-0.1,0.1c-0.5,0.5-0.9,1.1-1.2,1.7c-0.3,0.6-0.5,1.2-0.7,1.8c0,0.1,0-0.1,0-0.3
		s0-0.6,0-0.5L18.7,24c-2,4.5-3.3,9.3-3.7,14.2c-0.1,0.8-0.2,1.7-0.1,2.5v0.1c-1.4,1.6-2.7,3.3-3.8,5.1C7.4,52,4.7,58.7,3,65.6
		C4.2,63,5.6,60.4,7.3,58c-3.2,8.2-4.9,16.9-4.9,25.7c0.5-2.6,1.3-5.1,2.1-7.6C4,86.5,6,96.8,10.4,106.3
		c5.8,13.1,15.5,24.1,27.8,31.5l0,0c5,3.4,10.4,6,16.2,7.8c0.8,0.3,1.5,0.5,2.3,0.8c-0.2-0.1-0.5-0.2-0.7-0.3c6.8,2,13.9,3.1,21,3.1
		c25.2,0,33.5-9.6,34.3-10.5l0,0c1.2-1.1,2.3-2.5,3-4l0,0c0.5-0.2,1-0.4,1.5-0.6l0.3-0.1l0.6-0.3c3.8-1.8,7.4-4,10.6-6.7
		c4.9-3.5,8.4-8.6,9.9-14.5l0,0c0.9-2.1,0.9-4.5,0.1-6.7c0.3-0.4,0.5-0.8,0.8-1.3c5.4-8.7,8.5-18.6,8.9-28.9v0c0-0.3,0-0.6,0-0.8
		C146.9,72.6,146.7,70.4,146.3,68.3z"/>
</g>

<!-- Generic Browser Icon -->
<g class="icon" id="browser-dark">
	<path fill="#45609E" d="M21.4,112.6c5.5-4.9,11.6-9,18.3-12c-2.2-9.3-3.6-19.7-3.8-30.9H3.1C3.9,86.3,10.7,101.3,21.4,112.6z"/>
	<path fill="#45609E" d="M35.8,63.6c0.2-11.2,1.6-21.6,3.8-30.9c-6.6-3-12.7-7-18.3-12C10.7,32,3.9,47,3.1,63.6H35.8z"/>
	<path fill="#45609E" d="M54.3,131.8c-5.3-5.8-9.8-14.5-13-25.2c-5.6,2.7-10.8,6.1-15.5,10.3C33.8,124,43.5,129.2,54.3,131.8z"/>
	<path fill="#45609E" d="M54.3,1.5C43.5,4.1,33.8,9.3,25.7,16.4c4.7,4.2,9.9,7.6,15.5,10.3C44.4,16,48.9,7.3,54.3,1.5z"/>
	<path fill="#45609E" d="M67.1,0c-8.3,2.2-15.6,13.4-20.2,29.1c6.4,2.4,13.2,3.7,20.2,4.1V0z"/>
	<path fill="#45609E" d="M67.1,39.3C59.6,39,52.3,37.5,45.3,35c-2,8.6-3.2,18.4-3.4,28.6h25.1V39.3z"/>
	<path fill="#45609E" d="M67.1,69.7H41.9c0.2,10.2,1.4,19.9,3.4,28.6c6.9-2.5,14.2-3.9,21.7-4.2V69.7z"/>
	<path fill="#45609E" d="M67.1,133.3v-33.2c-7,0.3-13.8,1.7-20.2,4.1C51.5,119.9,58.8,131,67.1,133.3z"/>
	<path fill="#45609E" d="M73.2,0v33.2c6.9-0.3,13.7-1.7,20.1-4.1C88.7,13.4,81.4,2.2,73.2,0z"/>
	<path fill="#45609E" d="M73.2,100.1v33.2c6.2-1.7,12.2-8.7,16.8-19.5l-4.6-12C81.4,100.8,77.3,100.3,73.2,100.1z"/>
	<path fill="#45609E" d="M96.7,87.8L96.7,87.8c0.9-5.8,1.4-11.9,1.5-18.1H73.2V94c3.6,0.2,7.2,0.5,10.8,1.2c0.2-2,1.2-4,2.7-5.5
		c1.7-1.7,4-2.7,6.5-2.7C94.3,87,95.6,87.3,96.7,87.8z"/>
	<path fill="#45609E" d="M94.9,35C88,37.5,80.7,39,73.2,39.3v24.3h25.1C98.1,53.4,96.9,43.7,94.9,35z"/>
	<path fill="#45609E" d="M114.5,16.4c-8-7.1-17.8-12.3-28.5-14.9c5.3,5.8,9.8,14.5,13,25.2C104.6,24.1,109.8,20.6,114.5,16.4z"/>
	<path fill="#45609E" d="M93,121.6c-2.1,4-4.5,7.4-6.9,10.2c3.3-0.8,6.5-1.8,9.6-3.1L93,121.6z"/>
	<path fill="#45609E" d="M104.4,69.7c-0.2,7-0.7,13.8-1.7,20.4l25.7,9.8c5.3-9.2,8.2-19.4,8.7-30.2H104.4z"/>
	<path fill="#45609E" d="M100.6,32.7c2.2,9.3,3.6,19.7,3.8,30.9h32.7c-0.7-16.6-7.5-31.6-18.2-42.9C113.3,25.6,107.2,29.7,100.6,32.7z"/>
	<path fill="#45609E" d="M142.1,114.2c0.2-1.4-0.5-2.7-1.7-3.3l-46-17.5c-1.2-0.6-2.5-0.3-3.4,0.6c-0.9,0.9-1.2,2.3-0.6,3.5l17.5,46
		c0.6,1.2,1.9,1.9,3.3,1.7c1.3-0.2,2.4-1.3,2.5-2.7l1.1-11.5l17.5,17.5c0.6,0.6,1.4,0.9,2.1,0.9c0.8,0,1.6-0.3,2.2-0.9l8.8-8.8
		c0.6-0.6,0.9-1.4,0.9-2.2c0-0.8-0.3-1.6-0.9-2.2l-17.5-17.5l11.5-1.1C140.7,116.6,141.8,115.6,142.1,114.2z"/>
</g>

<g class="icon" id="browser-light">
	<path fill="#FFFFFF" d="M21.4,112.6c5.5-4.9,11.6-9,18.3-12c-2.2-9.3-3.6-19.7-3.8-30.9H3.1C3.9,86.3,10.7,101.3,21.4,112.6z"/>
	<path fill="#FFFFFF" d="M35.8,63.6c0.2-11.2,1.6-21.6,3.8-30.9c-6.6-3-12.7-7-18.3-12C10.7,32,3.9,47,3.1,63.6H35.8z"/>
	<path fill="#FFFFFF" d="M54.3,131.8c-5.3-5.8-9.8-14.5-13-25.2c-5.6,2.7-10.8,6.1-15.5,10.3C33.8,124,43.5,129.2,54.3,131.8z"/>
	<path fill="#FFFFFF" d="M54.3,1.5C43.5,4.1,33.8,9.3,25.7,16.4c4.7,4.2,9.9,7.6,15.5,10.3C44.4,16,48.9,7.3,54.3,1.5z"/>
	<path fill="#FFFFFF" d="M67.1,0c-8.3,2.2-15.6,13.4-20.2,29.1c6.4,2.4,13.2,3.7,20.2,4.1V0z"/>
	<path fill="#FFFFFF" d="M67.1,39.3C59.6,39,52.3,37.5,45.3,35c-2,8.6-3.2,18.4-3.4,28.6h25.1V39.3z"/>
	<path fill="#FFFFFF" d="M67.1,69.7H41.9c0.2,10.2,1.4,19.9,3.4,28.6c6.9-2.5,14.2-3.9,21.7-4.2V69.7z"/>
	<path fill="#FFFFFF" d="M67.1,133.3v-33.2c-7,0.3-13.8,1.7-20.2,4.1C51.5,119.9,58.8,131,67.1,133.3z"/>
	<path fill="#FFFFFF" d="M73.2,0v33.2c6.9-0.3,13.7-1.7,20.1-4.1C88.7,13.4,81.4,2.2,73.2,0z"/>
	<path fill="#FFFFFF" d="M73.2,100.1v33.2c6.2-1.7,12.2-8.7,16.8-19.5l-4.6-12C81.4,100.8,77.3,100.3,73.2,100.1z"/>
	<path fill="#FFFFFF" d="M96.7,87.8L96.7,87.8c0.9-5.8,1.4-11.9,1.5-18.1H73.2V94c3.6,0.2,7.2,0.5,10.8,1.2c0.2-2,1.2-4,2.7-5.5
		c1.7-1.7,4-2.7,6.5-2.7C94.3,87,95.6,87.3,96.7,87.8z"/>
	<path fill="#FFFFFF" d="M94.9,35C88,37.5,80.7,39,73.2,39.3v24.3h25.1C98.1,53.4,96.9,43.7,94.9,35z"/>
	<path fill="#FFFFFF" d="M114.5,16.4c-8-7.1-17.8-12.3-28.5-14.9c5.3,5.8,9.8,14.5,13,25.2C104.6,24.1,109.8,20.6,114.5,16.4z"/>
	<path fill="#FFFFFF" d="M93,121.6c-2.1,4-4.5,7.4-6.9,10.2c3.3-0.8,6.5-1.8,9.6-3.1L93,121.6z"/>
	<path fill="#FFFFFF" d="M104.4,69.7c-0.2,7-0.7,13.8-1.7,20.4l25.7,9.8c5.3-9.2,8.2-19.4,8.7-30.2H104.4z"/>
	<path fill="#FFFFFF" d="M100.6,32.7c2.2,9.3,3.6,19.7,3.8,30.9h32.7c-0.7-16.6-7.5-31.6-18.2-42.9C113.3,25.6,107.2,29.7,100.6,32.7z"/>
	<path fill="#FFFFFF" d="M142.1,114.2c0.2-1.4-0.5-2.7-1.7-3.3l-46-17.5c-1.2-0.6-2.5-0.3-3.4,0.6c-0.9,0.9-1.2,2.3-0.6,3.5l17.5,46
		c0.6,1.2,1.9,1.9,3.3,1.7c1.3-0.2,2.4-1.3,2.5-2.7l1.1-11.5l17.5,17.5c0.6,0.6,1.4,0.9,2.1,0.9c0.8,0,1.6-0.3,2.2-0.9l8.8-8.8
		c0.6-0.6,0.9-1.4,0.9-2.2c0-0.8-0.3-1.6-0.9-2.2l-17.5-17.5l11.5-1.1C140.7,116.6,141.8,115.6,142.1,114.2z"/>
</g>

<!-- Chrome Icon -->
<g class="icon" id="chrome-dark">
	<path fill="#45609E" d="M74.7,0C50,0,28.2,11.9,14.6,30.3l23.1,39.9c2.2-18.6,17.9-32.7,36.6-32.9c0.1,0,0.3,0,0.4,0h64.7C126.4,15,102.3,0,74.7,0
		L74.7,0z"/>
	<path fill="#45609E" d="M10,37.3C3.6,48.3,0,61,0,74.7c0,38.4,29,70,66.3,74.2l23-39.9c-4.6,2-9.6,3-14.7,3c-13.1,0-25.3-6.9-32-18.2
		c-0.1-0.1-0.2-0.3-0.3-0.5L10,37.3L10,37.3z"/>
	<circle fill="#45609E" cx="74.7" cy="74.7" r="29.9"/>
	<path fill="#45609E" d="M97,44.8c9.4,7,15,18.1,15,29.9c0,6.3-1.6,12.6-4.7,18.1c-0.1,0.2-0.2,0.4-0.3,0.6l-32.3,56c41.3,0,74.6-33.4,74.6-74.6
		c0-10.6-2.2-20.7-6.2-29.9L97,44.8L97,44.8z"/>
</g>

<g class="icon" id="chrome-light">
	<path fill="#FFFFFF" d="M74.7,0C50,0,28.2,11.9,14.6,30.3l23.1,39.9c2.2-18.6,17.9-32.7,36.6-32.9c0.1,0,0.3,0,0.4,0h64.7C126.4,15,102.3,0,74.7,0
		L74.7,0z"/>
	<path fill="#FFFFFF" d="M10,37.3C3.6,48.3,0,61,0,74.7c0,38.4,29,70,66.3,74.2l23-39.9c-4.6,2-9.6,3-14.7,3c-13.1,0-25.3-6.9-32-18.2
		c-0.1-0.1-0.2-0.3-0.3-0.5L10,37.3L10,37.3z"/>
	<circle fill="#FFFFFF" cx="74.7" cy="74.7" r="29.9"/>
	<path fill="#FFFFFF" d="M97,44.8c9.4,7,15,18.1,15,29.9c0,6.3-1.6,12.6-4.7,18.1c-0.1,0.2-0.2,0.4-0.3,0.6l-32.3,56c41.3,0,74.6-33.4,74.6-74.6
		c0-10.6-2.2-20.7-6.2-29.9L97,44.8L97,44.8z"/>
</g>

<!-- Desktop Icon -->
<g class="icon" id="desktop-dark">
	<path fill="#46509E" d="M149.3,24.9v79.6c0,8.2-6.7,15-14.9,15h-31.8l6.4,12.7c1.6,3.3-0.8,7.2-4.4,7.2H44.8c-3.7,0-6.1-3.9-4.4-7.2
		l6.3-12.7H15c-8.2,0-15-6.8-15-15V24.9c0-8.2,6.8-15,15-15h119.4C142.6,9.9,149.3,16.7,149.3,24.9z"/>
</g>

<g class="icon" id="desktop-light">
	<path fill="#FFFFFF" d="M149.3,24.9v79.6c0,8.2-6.7,15-14.9,15h-31.8l6.4,12.7c1.6,3.3-0.8,7.2-4.4,7.2H44.8c-3.7,0-6.1-3.9-4.4-7.2
		l6.3-12.7H15c-8.2,0-15-6.8-15-15V24.9c0-8.2,6.8-15,15-15h119.4C142.6,9.9,149.3,16.7,149.3,24.9z"/>
</g>

<!-- Safari Icon -->
<g class="icon" id="safari-dark">
	<path fill="#45609E" d="M72.8,7.6C36.5,8.6,7.6,38.4,7.7,74.7c0,36.9,30,66.9,66.9,66.9s66.9-30,66.9-66.9c0.1-36.9-29.8-67-66.7-67.1
		C74.1,7.6,73.5,7.6,72.8,7.6z"/>
	<path fill="#FFFFFF" d="M74.6,19.7c0.5,0,1,0.4,1,0.9v5.7c0,0.6-0.6,1-1.1,0.9c-0.5,0-0.9-0.4-0.9-0.9v-5.7
		C73.6,20.1,74.1,19.7,74.6,19.7z"/>
	<path fill="#FFFFFF" d="M51.1,25c0.4,0,0.8,0.2,1,0.5l2.5,5.1c0.2,0.5,0,1.1-0.5,1.4c-0.5,0.2-1.1,0-1.4-0.5l-2.5-5.1
		c-0.2-0.5,0-1.1,0.5-1.4C50.9,25.1,51,25,51.1,25L51.1,25z"/>
	<path fill="#FFFFFF" d="M98,25c0.6,0,1,0.4,1.1,1c0,0.1,0,0.3-0.1,0.4l-2.5,5.1c-0.3,0.5-0.9,0.7-1.4,0.5c-0.5-0.2-0.7-0.9-0.5-1.4
		l2.5-5.1C97.3,25.2,97.6,25,98,25L98,25z"/>
	<path fill="#FFFFFF" d="M122.4,35.1C122.4,35.1,122.4,35.1,122.4,35.1c0.8,0,1.4,0.6,1.5,1.3c0,0.3-0.1,0.7-0.3,0.9L83.1,85.3
		l-55.7,28.8c-0.7,0.4-1.5,0.1-1.9-0.6c-0.3-0.5-0.2-1.1,0.2-1.5l40.5-47.9l55.7-28.8C122,35.2,122.2,35.2,122.4,35.1L122.4,35.1z"/>
	<path fill="#FFFFFF" d="M32.3,40c0.2,0,0.5,0.1,0.7,0.2l4.5,3.6c0.4,0.4,0.5,1,0.1,1.5c-0.3,0.4-0.9,0.5-1.4,0.2l-4.5-3.6
		c-0.4-0.4-0.5-1-0.2-1.4C31.7,40.1,32,40,32.3,40L32.3,40z"/>
	<path fill="#FFFFFF" d="M21.8,61.6C21.9,61.6,21.9,61.6,21.8,61.6c0.2,0,0.2,0,0.3,0l5.6,1.3c0.5,0.2,0.9,0.7,0.7,1.3
		c-0.1,0.5-0.7,0.8-1.2,0.7l-5.6-1.3c-0.6-0.1-0.9-0.7-0.8-1.2C21,62,21.4,61.7,21.8,61.6L21.8,61.6z"/>
	<path fill="#FFFFFF" d="M127.3,61.6c0.6,0,1,0.5,1,1c0,0.5-0.3,0.9-0.8,1l-5.6,1.3c-0.6,0.1-1.1-0.3-1.2-0.8c-0.1-0.5,0.2-1,0.7-1.2
		l5.6-1.3C127.1,61.6,127.2,61.6,127.3,61.6L127.3,61.6z"/>
	<path fill="#FFFFFF" d="M27.5,84.4c0.6,0,1,0.5,1,1.1c0,0.5-0.3,0.9-0.8,1l-5.6,1.3c-0.6,0.1-1.1-0.2-1.2-0.8c-0.1-0.6,0.2-1.1,0.8-1.2
		l5.6-1.3C27.3,84.4,27.4,84.4,27.5,84.4L27.5,84.4z"/>
	<path fill="#FFFFFF" d="M121.6,84.4c0.1,0,0.2,0,0.3,0l5.6,1.3c0.6,0.1,0.9,0.7,0.8,1.2s-0.7,0.9-1.2,0.8l-5.6-1.3
		c-0.6-0.1-0.9-0.7-0.8-1.2C120.8,84.8,121.2,84.5,121.6,84.4L121.6,84.4z"/>
	<path fill="#FFFFFF" d="M112.3,103.8c0.2,0,0.5,0.1,0.7,0.2l4.5,3.6c0.4,0.4,0.5,1,0.2,1.5c-0.4,0.4-1,0.5-1.4,0.2l-4.5-3.6
		c-0.4-0.4-0.5-1-0.2-1.4C111.7,103.9,112,103.8,112.3,103.8L112.3,103.8z"/>
	<path fill="#FFFFFF" d="M53.6,117.3c0.6,0,1,0.4,1.1,1c0,0.1,0,0.3-0.1,0.4l-2.5,5.1c-0.3,0.5-0.9,0.7-1.4,0.4
		c-0.4-0.3-0.6-0.8-0.4-1.3l2.5-5.1C52.9,117.5,53.2,117.3,53.6,117.3L53.6,117.3z"/>
	<path fill="#FFFFFF" d="M95.6,117.3c0.4,0,0.7,0.2,0.9,0.5l2.5,5.1c0.2,0.5,0,1.1-0.5,1.4c-0.5,0.2-1.1,0-1.4-0.5l-2.5-5.1
		c-0.2-0.5,0-1.1,0.6-1.3C95.3,117.3,95.4,117.3,95.6,117.3L95.6,117.3z"/>
	<path fill="#FFFFFF" d="M74.6,122.1c0.5,0,1,0.4,1,0.9v5.7c0,0.6-0.6,1-1.1,0.9c-0.5,0-0.9-0.4-0.9-0.9V123
		C73.6,122.5,74,122.1,74.6,122.1z"/>
	<path fill="#45609E" d="M74.6,3l0.1,0c19.1,0,37.1,7.5,50.6,21c13.5,13.5,20.9,31.5,20.9,50.7c0,39.5-32.1,71.6-71.6,71.6
		C35.1,146.3,3,114.2,3,74.7c0-18.8,7.2-36.5,20.2-50C36.3,11.2,53.8,3.5,72.6,3C73.3,3,73.9,3,74.6,3 M74.6,0c-0.7,0-1.4,0-2.1,0
		C32.1,1.1-0.1,34.3,0,74.7c0,41.2,33.4,74.6,74.6,74.6c41.2,0,74.6-33.4,74.6-74.6c0,0,0,0,0,0C149.2,33.5,115.9,0.1,74.7,0
		C74.7,0,74.6,0,74.6,0L74.6,0z"/>
	<path fill="#45609E" d="M80.8,84.1l-51.3,26.6l37.3-44.2L80.8,84.1z"/>
</g>

<!-- Safari Icon -->
<g class="icon" id="safari-light">
	<path fill="#FFFFFF" d="M72.8,7.6C36.5,8.6,7.6,38.4,7.7,74.7c0,36.9,30,66.9,66.9,66.9s66.9-30,66.9-66.9c0.1-36.9-29.8-67-66.7-67.1
		C74.1,7.6,73.5,7.6,72.8,7.6z"/>
	<path fill="#45609E" d="M74.6,19.7c0.5,0,1,0.4,1,0.9v5.7c0,0.6-0.6,1-1.1,0.9c-0.5,0-0.9-0.4-0.9-0.9v-5.7
		C73.6,20.1,74.1,19.7,74.6,19.7z"/>
	<path fill="#45609E" d="M51.1,25c0.4,0,0.8,0.2,1,0.5l2.5,5.1c0.2,0.5,0,1.1-0.5,1.4c-0.5,0.2-1.1,0-1.4-0.5l-2.5-5.1
		c-0.2-0.5,0-1.1,0.5-1.4C50.9,25.1,51,25,51.1,25L51.1,25z"/>
	<path fill="#45609E" d="M98,25c0.6,0,1,0.4,1.1,1c0,0.1,0,0.3-0.1,0.4l-2.5,5.1c-0.3,0.5-0.9,0.7-1.4,0.5c-0.5-0.2-0.7-0.9-0.5-1.4
		l2.5-5.1C97.3,25.2,97.6,25,98,25L98,25z"/>
	<path fill="#45609E" d="M122.4,35.1C122.4,35.1,122.4,35.1,122.4,35.1c0.8,0,1.4,0.6,1.5,1.3c0,0.3-0.1,0.7-0.3,0.9L83.1,85.3
		l-55.7,28.8c-0.7,0.4-1.5,0.1-1.9-0.6c-0.3-0.5-0.2-1.1,0.2-1.5l40.5-47.9l55.7-28.8C122,35.2,122.2,35.2,122.4,35.1L122.4,35.1z"/>
	<path fill="#45609E" d="M32.3,40c0.2,0,0.5,0.1,0.7,0.2l4.5,3.6c0.4,0.4,0.5,1,0.1,1.5c-0.3,0.4-0.9,0.5-1.4,0.2l-4.5-3.6
		c-0.4-0.4-0.5-1-0.2-1.4C31.7,40.1,32,40,32.3,40L32.3,40z"/>
	<path fill="#45609E" d="M21.8,61.6C21.9,61.6,21.9,61.6,21.8,61.6c0.2,0,0.2,0,0.3,0l5.6,1.3c0.5,0.2,0.9,0.7,0.7,1.3
		c-0.1,0.5-0.7,0.8-1.2,0.7l-5.6-1.3c-0.6-0.1-0.9-0.7-0.8-1.2C21,62,21.4,61.7,21.8,61.6L21.8,61.6z"/>
	<path fill="#45609E" d="M127.3,61.6c0.6,0,1,0.5,1,1c0,0.5-0.3,0.9-0.8,1l-5.6,1.3c-0.6,0.1-1.1-0.3-1.2-0.8c-0.1-0.5,0.2-1,0.7-1.2
		l5.6-1.3C127.1,61.6,127.2,61.6,127.3,61.6L127.3,61.6z"/>
	<path fill="#45609E" d="M27.5,84.4c0.6,0,1,0.5,1,1.1c0,0.5-0.3,0.9-0.8,1l-5.6,1.3c-0.6,0.1-1.1-0.2-1.2-0.8c-0.1-0.6,0.2-1.1,0.8-1.2
		l5.6-1.3C27.3,84.4,27.4,84.4,27.5,84.4L27.5,84.4z"/>
	<path fill="#45609E" d="M121.6,84.4c0.1,0,0.2,0,0.3,0l5.6,1.3c0.6,0.1,0.9,0.7,0.8,1.2s-0.7,0.9-1.2,0.8l-5.6-1.3
		c-0.6-0.1-0.9-0.7-0.8-1.2C120.8,84.8,121.2,84.5,121.6,84.4L121.6,84.4z"/>
	<path fill="#45609E" d="M112.3,103.8c0.2,0,0.5,0.1,0.7,0.2l4.5,3.6c0.4,0.4,0.5,1,0.2,1.5c-0.4,0.4-1,0.5-1.4,0.2l-4.5-3.6
		c-0.4-0.4-0.5-1-0.2-1.4C111.7,103.9,112,103.8,112.3,103.8L112.3,103.8z"/>
	<path fill="#45609E" d="M53.6,117.3c0.6,0,1,0.4,1.1,1c0,0.1,0,0.3-0.1,0.4l-2.5,5.1c-0.3,0.5-0.9,0.7-1.4,0.4
		c-0.4-0.3-0.6-0.8-0.4-1.3l2.5-5.1C52.9,117.5,53.2,117.3,53.6,117.3L53.6,117.3z"/>
	<path fill="#45609E" d="M95.6,117.3c0.4,0,0.7,0.2,0.9,0.5l2.5,5.1c0.2,0.5,0,1.1-0.5,1.4c-0.5,0.2-1.1,0-1.4-0.5l-2.5-5.1
		c-0.2-0.5,0-1.1,0.6-1.3C95.3,117.3,95.4,117.3,95.6,117.3L95.6,117.3z"/>
	<path fill="#45609E" d="M74.6,122.1c0.5,0,1,0.4,1,0.9v5.7c0,0.6-0.6,1-1.1,0.9c-0.5,0-0.9-0.4-0.9-0.9V123
		C73.6,122.5,74,122.1,74.6,122.1z"/>
	<path fill="#FFFFFF" d="M74.6,3l0.1,0c19.1,0,37.1,7.5,50.6,21c13.5,13.5,20.9,31.5,20.9,50.7c0,39.5-32.1,71.6-71.6,71.6
		C35.1,146.3,3,114.2,3,74.7c0-18.8,7.2-36.5,20.2-50C36.3,11.2,53.8,3.5,72.6,3C73.3,3,73.9,3,74.6,3 M74.6,0c-0.7,0-1.4,0-2.1,0
		C32.1,1.1-0.1,34.3,0,74.7c0,41.2,33.4,74.6,74.6,74.6c41.2,0,74.6-33.4,74.6-74.6c0,0,0,0,0,0C149.2,33.5,115.9,0.1,74.7,0
		C74.7,0,74.6,0,74.6,0L74.6,0z"/>
	<path fill="#FFFFFF" d="M80.8,84.1l-51.3,26.6l37.3-44.2L80.8,84.1z"/>
</g>

<!-- Phone Icon -->
<g class="icon" id="phone-dark">
	<path fill="#45609E" d="M102.5,0H46.8c-6.6,0-12.1,5.3-12.1,12.1v125.1c0,6.6,5.4,12.1,12.1,12.1h55.6c6.6,0,12.1-5.3,12.1-12.1V12.1
		C114.6,5.3,109.1,0,102.5,0z M65.8,8.2h17.8c1.6,0,2.7,1.3,2.7,2.7c0,1.4-1.3,2.7-2.7,2.7H65.8c-1.6,0-2.7-1.3-2.7-2.7
		C63.2,9.4,64.3,8.2,65.8,8.2z M74.7,139.7c-3.9,0-7.1-3.1-7.1-7.1c0-3.9,3.1-7.1,7.1-7.1c3.9,0,7.1,3.1,7.1,7.1
		C81.7,136.6,78.6,139.7,74.7,139.7z M106.4,116.8H42.9V21.1h63.5V116.8z"/>
</g>

<g class="icon" id="phone-light">
	<path fill="#FFFFFF" d="M102.5,0H46.8c-6.6,0-12.1,5.3-12.1,12.1v125.1c0,6.6,5.4,12.1,12.1,12.1h55.6c6.6,0,12.1-5.3,12.1-12.1V12.1
		C114.6,5.3,109.1,0,102.5,0z M65.8,8.2h17.8c1.6,0,2.7,1.3,2.7,2.7c0,1.4-1.3,2.7-2.7,2.7H65.8c-1.6,0-2.7-1.3-2.7-2.7
		C63.2,9.4,64.3,8.2,65.8,8.2z M74.7,139.7c-3.9,0-7.1-3.1-7.1-7.1c0-3.9,3.1-7.1,7.1-7.1c3.9,0,7.1,3.1,7.1,7.1
		C81.7,136.6,78.6,139.7,74.7,139.7z M106.4,116.8H42.9V21.1h63.5V116.8z"/>
</g>

<!-- Edge Icon -->
<g class="icon" id="edge-dark">
	<path fill="#45609E" d="M131.5,29.2c-0.2-0.2-0.3-0.5-0.5-0.7C118.4,11.3,98.2,0.2,75.5,0.2C38.7,0.2,8.7,29.3,6.3,66.1
		c5.6-10.3,31.2-37.6,65.1-37.6s30.8,32,30.8,32H49c1-12.6,10.1-23.4,10.1-23.4C21.5,52.4,23.2,90.9,23.2,90.9
		c0.9,18,6.8,30.5,14.7,39.1c18.6,20.4,48.1,19.2,48.1,19.2c26.5,0,44.4-10.7,44.4-10.7v-24.7v-6.5c0,0-15.4,10.8-40.6,11.2
		c-42.1-0.8-40.1-31.8-40.1-31.8H143c0,0,0,0,0,0V70.1C143,70.1,143.8,46.6,131.5,29.2z"/>
</g>

<g class="icon" id="edge-light">
	<path fill="#FFFFFF" d="M131.5,29.2c-0.2-0.2-0.3-0.5-0.5-0.7C118.4,11.3,98.2,0.2,75.5,0.2C38.7,0.2,8.7,29.3,6.3,66.1
		c5.6-10.3,31.2-37.6,65.1-37.6s30.8,32,30.8,32H49c1-12.6,10.1-23.4,10.1-23.4C21.5,52.4,23.2,90.9,23.2,90.9
		c0.9,18,6.8,30.5,14.7,39.1c18.6,20.4,48.1,19.2,48.1,19.2c26.5,0,44.4-10.7,44.4-10.7v-24.7v-6.5c0,0-15.4,10.8-40.6,11.2
		c-42.1-0.8-40.1-31.8-40.1-31.8H143c0,0,0,0,0,0V70.1C143,70.1,143.8,46.6,131.5,29.2z"/>
</g>

<!-- Opera Icon -->
<g class="icon" id="opera-dark">
	<path fill="#8FA0C5" d="M50.1,116.7c-8.3-9.7-13.6-24.1-13.9-40.3v-3.5c0.3-16.2,5.7-30.6,13.9-40.3c10.7-13.9,26.5-20.1,44.3-20.1
		c11,0,21.3,0.8,30,6.6C111.3,7.2,94,0.1,75,0h-0.3C33.4,0,0,33.4,0,74.7c0,40,31.5,72.7,71.1,74.6c1.2,0.1,2.4,0.1,3.6,0.1
		c19.1,0,36.6-7.2,49.8-19c-8.7,5.8-18.5,6.1-29.5,6.1C77.2,136.4,60.8,130.7,50.1,116.7L50.1,116.7z"/>
	<path fill="#45609E" d="M50.1,32.6c6.8-8.1,15.7-12.9,25.4-12.9c21.8,0,39.4,24.6,39.4,55.1s-17.6,55.1-39.4,55.1
		c-9.7,0-18.5-4.9-25.4-12.9c10.7,13.9,26.7,22.7,44.4,22.7c10.9,0,21.2-3.3,29.9-9.2c15.3-13.8,24.9-33.7,24.9-55.8
		s-9.6-42-24.9-55.6c-8.7-5.8-19-9.2-29.9-9.2C76.7,9.9,60.8,18.7,50.1,32.6L50.1,32.6z"/>
</g>

<g class="icon" id="opera-light">
	<path fill="#FFFFFF" d="M50.1,116.7c-8.3-9.7-13.6-24.1-13.9-40.3v-3.5c0.3-16.2,5.7-30.6,13.9-40.3c10.7-13.9,26.5-20.1,44.3-20.1
		c11,0,21.3,0.8,30,6.6C111.3,7.2,94,0.1,75,0h-0.3C33.4,0,0,33.4,0,74.7c0,40,31.5,72.7,71.1,74.6c1.2,0.1,2.4,0.1,3.6,0.1
		c19.1,0,36.6-7.2,49.8-19c-8.7,5.8-18.5,6.1-29.5,6.1C77.2,136.4,60.8,130.7,50.1,116.7L50.1,116.7z"/>
	<path fill="#DADFEC" d="M50.1,32.6c6.8-8.1,15.7-12.9,25.4-12.9c21.8,0,39.4,24.6,39.4,55.1s-17.6,55.1-39.4,55.1
		c-9.7,0-18.5-4.9-25.4-12.9c10.7,13.9,26.7,22.7,44.4,22.7c10.9,0,21.2-3.3,29.9-9.2c15.3-13.8,24.9-33.7,24.9-55.8
		s-9.6-42-24.9-55.6c-8.7-5.8-19-9.2-29.9-9.2C76.7,9.9,60.8,18.7,50.1,32.6L50.1,32.6z"/>
</g>

<!-- Apple Icon -->
<g class="icon" id="apple-dark">
	<path fill="#45609E" d="M115.4,79.3c-0.2-18.9,15.4-28,16.1-28.4c-8.8-12.8-22.4-14.6-27.3-14.8c-11.6-1.2-22.7,6.8-28.6,6.8
		c-5.9,0-15-6.7-24.6-6.5c-12.7,0.2-24.4,7.4-30.9,18.7c-13.2,22.9-3.4,56.7,9.5,75.2c6.3,9.1,13.7,19.3,23.6,18.9
		c9.5-0.4,13-6.1,24.5-6.1c11.4,0,14.6,6.1,24.6,5.9c10.2-0.2,16.6-9.2,22.8-18.3c7.2-10.5,10.2-20.7,10.3-21.2
		C135.2,109.4,115.6,101.9,115.4,79.3"/>
	<path fill="#45609E" d="M96.6,23.8c5.2-6.3,8.7-15.1,7.8-23.8c-7.5,0.3-16.6,5-22,11.3c-4.8,5.6-9.1,14.5-7.9,23.1C82.8,35.1,91.4,30.1,96.6,23.8" />
</g>

<g class="icon" id="apple-light">
	<path fill="#FFFFFF" d="M115.4,79.3c-0.2-18.9,15.4-28,16.1-28.4c-8.8-12.8-22.4-14.6-27.3-14.8c-11.6-1.2-22.7,6.8-28.6,6.8
		c-5.9,0-15-6.7-24.6-6.5c-12.7,0.2-24.4,7.4-30.9,18.7c-13.2,22.9-3.4,56.7,9.5,75.2c6.3,9.1,13.7,19.3,23.6,18.9
		c9.5-0.4,13-6.1,24.5-6.1c11.4,0,14.6,6.1,24.6,5.9c10.2-0.2,16.6-9.2,22.8-18.3c7.2-10.5,10.2-20.7,10.3-21.2
		C135.2,109.4,115.6,101.9,115.4,79.3"/>
	<path fill="#FFFFFF" d="M96.6,23.8c5.2-6.3,8.7-15.1,7.8-23.8c-7.5,0.3-16.6,5-22,11.3c-4.8,5.6-9.1,14.5-7.9,23.1C82.8,35.1,91.4,30.1,96.6,23.8" />
</g>

<!-- Windows Icon -->
<g class="icon" id="windows-dark">
	<polygon fill="#45609E" points="61.9,71.9 61.9,12.2 0,21 0,71.9 "/>
	<polygon fill="#45609E" points="67.4,71.9 148.7,71.9 148.7,0 67.4,11.5 "/>
	<polygon fill="#45609E" points="61.9,77.4 0,77.4 0,128.3 61.9,137.1 "/>
	<polygon fill="#45609E" points="67.4,77.4 67.4,137.8 148.7,149.3 148.7,77.4 "/>
</g>

<g class="icon" id="windows-light">
	<polygon fill="#FFFFFF" points="61.9,71.9 61.9,12.2 0,21 0,71.9 "/>
	<polygon fill="#FFFFFF" points="67.4,71.9 148.7,71.9 148.7,0 67.4,11.5 "/>
	<polygon fill="#FFFFFF" points="61.9,77.4 0,77.4 0,128.3 61.9,137.1 "/>
	<polygon fill="#FFFFFF" points="67.4,77.4 67.4,137.8 148.7,149.3 148.7,77.4 "/>
</g>

<!-- Tux Icon -->
<g class="icon" id="tux-dark">
	<path fill="#45609E" d="M102.7,46.3l-2.8-24.2c0-22.3-20.1-22-20.1-22S59.7-0.2,59.7,22L57,46.3c0,0-24,32.2-24,50.9v2.3c0,0-0.1,2.2,0,5.8v1.7
		c3,1.2,6.1,2.4,7.2,2.1c0.2,0,0.3-0.1,0.5-0.2c0.3-2.5,0.6-4.8,1-7.1c-0.1-1.3,0.1-2.5,0.6-3.7c2.6-14.3,6.1-24.4,11-30.5
		c0.3-0.4,0.9-0.5,1.3-0.1c0.4,0.3,0.5,0.9,0.1,1.3c-0.5,0.6-1,1.3-1.5,2c-3.7,5.6-6.7,14.1-8.8,25.5h0.2c0.4-0.1,0.8-0.1,1.2,0
		c1.5,0.3,3.7,1.5,7.2,5.1c0.5-20.5,12.2-37,26.8-37c12.8,0,23.6,12.9,26.1,30.1c1.2-2.4,3.2-4.4,5.6-5.6c0.6-0.2,1.2-0.3,1.9-0.4
		c-1.3-6.2-3.7-12.2-7-17.6c-0.5-0.7-1-1.4-1.5-2.1c-0.3-0.4-0.3-0.9,0.1-1.3c0,0,0,0,0,0c0.4-0.3,1-0.3,1.3,0.1c0,0,0,0,0,0
		c3.7,4.7,6.8,11.7,9.1,21.3c5,1.9,5.1,10.3,5.2,17.1c0,3.2,0,6.6,0.8,7.5c0.8,0.9,2.4,0.7,4.7-0.3c0.3-3,0.4-5.6,0.5-7.8
		c0-3.5,0-5.8,0-5.8v-2.4C126.7,78.6,102.7,46.3,102.7,46.3z M90.8,40.4c-1.4,1.6-6.4,6.9-10.9,6.9c-4.5,0-9.5-5.3-10.9-6.9
		c-0.7-0.8-4.1-4.9-3.9-7c0.3-2.8,9.3-4.1,14.7-4.6c5.6,0.5,14.5,1.9,14.9,4.6C94.9,35.6,91.5,39.6,90.8,40.4z"/>
	<path fill="#45609E" d="M87.9,139.1c-2.5,1.2-5.3,1.8-8.1,1.9c-4.1,0-8.1-1.3-11.5-3.7c-2.3,5.8-7.1,10.3-13.1,12.1c0.4,0,0.8,0,1.2,0h44
		C95,147.7,90.5,144,87.9,139.1z"/>
	<path fill="#45609E" d="M92.8,33.7c0.1,0.5-0.9,2.6-3.4,5.5c-3.3,3.8-7.1,6.3-9.5,6.3c-2.4,0-6.2-2.5-9.5-6.3c-1.6-1.5-2.8-3.4-3.4-5.5
		c0.5-1,6.6-2.4,12.8-3C86.2,31.3,92.3,32.8,92.8,33.7z"/>
	<path fill="#45609E" d="M84.9,127.7c-2.1-19.6-0.2-23.7,1.5-25.1c0.8-0.7,2-0.8,2.9-0.4c1.7,0.8,3.2,2,4.3,3.5c2.1,2.3,3.6,3.7,4.9,2.9
		c1-0.6,2.4-3.7,3.7-6.6c0.7-1.5,1.4-3.2,2.2-4.8c-1.9-17.6-12.1-31.1-24.6-31.1C66.2,66.2,55,82.6,55,102.6c0,0.2,0,0.5,0,0.7
		c2.3,2.4,5,5.6,8.3,9.8c1.3,1.6,2.5,3.4,3.6,5.2c3.1,5.1,3.9,11.3,2.1,17c3.1,2.4,6.9,3.7,10.8,3.7c2.5,0,5-0.6,7.3-1.6
		c-0.5-1.1-0.9-2.3-1.2-3.5C85.5,131.9,85.1,129.8,84.9,127.7z"/>
	<path fill="#45609E" d="M61.8,114.3c-2.6-3.3-4.8-6-6.7-8.1l-1-1l-1-1c-4.3-4.5-6.6-5.7-7.8-5.9c-0.2,0-0.3,0-0.5,0c-0.4,0-0.7,0.3-0.8,0.6
		c0,0,0,0.1,0,0.1c-0.4,1-0.5,2-0.4,3.1c0,0.5,0,1,0,1.6c0,0.5,0,0.6,0,0.9c0.3,1.9-0.1,3.8-1.1,5.4c-0.2,0.2-0.4,0.4-0.6,0.5
		l-0.4,0.2c-0.3,0.1-0.5,0.2-0.8,0.3h-0.2c-1.5,0.3-4.1-0.6-7.3-1.9l-0.9-0.4c-4-1.6-8.7-3.4-12.1-3.4c-1.6-0.2-3.1,0.5-4.1,1.8
		c-2.5,3.7,3.1,9.6,7.6,14.3c2.8,2.9,5,5.2,5.2,6.9c0.4,3.2-2.9,4.4-5.8,5.5c-1.5,0.4-2.9,1.1-4.1,2.1c-0.4,0.5-0.4,0.9-0.3,1.1
		c0.4,1.4,3.7,4.6,21.3,9.7c1.9,0.6,3.9,1,5.9,1.3c7.4,1.1,14.7-2.1,18.9-8.2c0.8-1.2,1.5-2.6,2-3.9l0.4-0.9c0-0.3,0.2-0.7,0.3-1
		c1.4-5.1,0.6-10.5-2.1-14.9C64.2,117.5,63.1,115.8,61.8,114.3z"/>
	<path fill="#45609E" d="M132.5,113c-1.6,0.2-3.1,0.6-4.4,1.4l-2,0.9c-2.2,0.9-4.5,1.3-5.9-0.7c-0.3-0.5-0.6-1.1-0.7-1.7c-0.3-1.5-0.4-3-0.4-4.5
		c0-0.8,0-1.6,0-2.4c0-5.4-0.2-12-2.7-14.5c-0.3-0.3-0.7-0.6-1.1-0.8c-0.2-0.1-0.5-0.2-0.7-0.2h-0.3c-0.6-0.1-1.3,0-1.9,0.3
		c-2.2,0.9-4.1,3.7-5.8,7.1l-0.8,1.6c-0.3,0.6-0.6,1.2-0.9,1.9c-0.3,0.6-0.5,1.1-0.8,1.7c-1.6,3.7-2.9,6.6-4.4,7.5
		c-2.8,1.6-5.2-1-7.3-3.3c-1-1.2-2.2-2.3-3.5-3c-0.2-0.1-0.4-0.1-0.6-0.1c-0.2,0-0.4,0.1-0.6,0.2c-1.2,0.9-2.8,5.2-0.8,23.4
		c0.2,2,0.6,4,1,6c0.3,1,0.6,2.1,1,3c0.1,0.3,0.3,0.6,0.4,0.8c0.1,0.3,0.2,0.6,0.4,0.8c5,9.3,16.6,12.8,25.9,7.8
		c2.5-1.3,4.7-3.2,6.3-5.5c1.2-1.6,2.3-3.3,3.3-5.1c9-16,9.1-20.5,8.4-21.8C133.3,113.2,132.9,113,132.5,113z"/>
</g>

<g class="icon" id="tux-light">
	<path fill="#FFFFFF" d="M102.7,46.3l-2.8-24.2c0-22.3-20.1-22-20.1-22S59.7-0.2,59.7,22L57,46.3c0,0-24,32.2-24,50.9v2.3c0,0-0.1,2.2,0,5.8v1.7
		c3,1.2,6.1,2.4,7.2,2.1c0.2,0,0.3-0.1,0.5-0.2c0.3-2.5,0.6-4.8,1-7.1c-0.1-1.3,0.1-2.5,0.6-3.7c2.6-14.3,6.1-24.4,11-30.5
		c0.3-0.4,0.9-0.5,1.3-0.1c0.4,0.3,0.5,0.9,0.1,1.3c-0.5,0.6-1,1.3-1.5,2c-3.7,5.6-6.7,14.1-8.8,25.5h0.2c0.4-0.1,0.8-0.1,1.2,0
		c1.5,0.3,3.7,1.5,7.2,5.1c0.5-20.5,12.2-37,26.8-37c12.8,0,23.6,12.9,26.1,30.1c1.2-2.4,3.2-4.4,5.6-5.6c0.6-0.2,1.2-0.3,1.9-0.4
		c-1.3-6.2-3.7-12.2-7-17.6c-0.5-0.7-1-1.4-1.5-2.1c-0.3-0.4-0.3-0.9,0.1-1.3c0,0,0,0,0,0c0.4-0.3,1-0.3,1.3,0.1c0,0,0,0,0,0
		c3.7,4.7,6.8,11.7,9.1,21.3c5,1.9,5.1,10.3,5.2,17.1c0,3.2,0,6.6,0.8,7.5c0.8,0.9,2.4,0.7,4.7-0.3c0.3-3,0.4-5.6,0.5-7.8
		c0-3.5,0-5.8,0-5.8v-2.4C126.7,78.6,102.7,46.3,102.7,46.3z M90.8,40.4c-1.4,1.6-6.4,6.9-10.9,6.9c-4.5,0-9.5-5.3-10.9-6.9
		c-0.7-0.8-4.1-4.9-3.9-7c0.3-2.8,9.3-4.1,14.7-4.6c5.6,0.5,14.5,1.9,14.9,4.6C94.9,35.6,91.5,39.6,90.8,40.4z"/>
	<path fill="#FFFFFF" d="M87.9,139.1c-2.5,1.2-5.3,1.8-8.1,1.9c-4.1,0-8.1-1.3-11.5-3.7c-2.3,5.8-7.1,10.3-13.1,12.1c0.4,0,0.8,0,1.2,0h44
		C95,147.7,90.5,144,87.9,139.1z"/>
	<path fill="#FFFFFF" d="M92.8,33.7c0.1,0.5-0.9,2.6-3.4,5.5c-3.3,3.8-7.1,6.3-9.5,6.3c-2.4,0-6.2-2.5-9.5-6.3c-1.6-1.5-2.8-3.4-3.4-5.5
		c0.5-1,6.6-2.4,12.8-3C86.2,31.3,92.3,32.8,92.8,33.7z"/>
	<path fill="#FFFFFF" d="M84.9,127.7c-2.1-19.6-0.2-23.7,1.5-25.1c0.8-0.7,2-0.8,2.9-0.4c1.7,0.8,3.2,2,4.3,3.5c2.1,2.3,3.6,3.7,4.9,2.9
		c1-0.6,2.4-3.7,3.7-6.6c0.7-1.5,1.4-3.2,2.2-4.8c-1.9-17.6-12.1-31.1-24.6-31.1C66.2,66.2,55,82.6,55,102.6c0,0.2,0,0.5,0,0.7
		c2.3,2.4,5,5.6,8.3,9.8c1.3,1.6,2.5,3.4,3.6,5.2c3.1,5.1,3.9,11.3,2.1,17c3.1,2.4,6.9,3.7,10.8,3.7c2.5,0,5-0.6,7.3-1.6
		c-0.5-1.1-0.9-2.3-1.2-3.5C85.5,131.9,85.1,129.8,84.9,127.7z"/>
	<path fill="#FFFFFF" d="M61.8,114.3c-2.6-3.3-4.8-6-6.7-8.1l-1-1l-1-1c-4.3-4.5-6.6-5.7-7.8-5.9c-0.2,0-0.3,0-0.5,0c-0.4,0-0.7,0.3-0.8,0.6
		c0,0,0,0.1,0,0.1c-0.4,1-0.5,2-0.4,3.1c0,0.5,0,1,0,1.6c0,0.5,0,0.6,0,0.9c0.3,1.9-0.1,3.8-1.1,5.4c-0.2,0.2-0.4,0.4-0.6,0.5
		l-0.4,0.2c-0.3,0.1-0.5,0.2-0.8,0.3h-0.2c-1.5,0.3-4.1-0.6-7.3-1.9l-0.9-0.4c-4-1.6-8.7-3.4-12.1-3.4c-1.6-0.2-3.1,0.5-4.1,1.8
		c-2.5,3.7,3.1,9.6,7.6,14.3c2.8,2.9,5,5.2,5.2,6.9c0.4,3.2-2.9,4.4-5.8,5.5c-1.5,0.4-2.9,1.1-4.1,2.1c-0.4,0.5-0.4,0.9-0.3,1.1
		c0.4,1.4,3.7,4.6,21.3,9.7c1.9,0.6,3.9,1,5.9,1.3c7.4,1.1,14.7-2.1,18.9-8.2c0.8-1.2,1.5-2.6,2-3.9l0.4-0.9c0-0.3,0.2-0.7,0.3-1
		c1.4-5.1,0.6-10.5-2.1-14.9C64.2,117.5,63.1,115.8,61.8,114.3z"/>
	<path fill="#FFFFFF" d="M132.5,113c-1.6,0.2-3.1,0.6-4.4,1.4l-2,0.9c-2.2,0.9-4.5,1.3-5.9-0.7c-0.3-0.5-0.6-1.1-0.7-1.7c-0.3-1.5-0.4-3-0.4-4.5
		c0-0.8,0-1.6,0-2.4c0-5.4-0.2-12-2.7-14.5c-0.3-0.3-0.7-0.6-1.1-0.8c-0.2-0.1-0.5-0.2-0.7-0.2h-0.3c-0.6-0.1-1.3,0-1.9,0.3
		c-2.2,0.9-4.1,3.7-5.8,7.1l-0.8,1.6c-0.3,0.6-0.6,1.2-0.9,1.9c-0.3,0.6-0.5,1.1-0.8,1.7c-1.6,3.7-2.9,6.6-4.4,7.5
		c-2.8,1.6-5.2-1-7.3-3.3c-1-1.2-2.2-2.3-3.5-3c-0.2-0.1-0.4-0.1-0.6-0.1c-0.2,0-0.4,0.1-0.6,0.2c-1.2,0.9-2.8,5.2-0.8,23.4
		c0.2,2,0.6,4,1,6c0.3,1,0.6,2.1,1,3c0.1,0.3,0.3,0.6,0.4,0.8c0.1,0.3,0.2,0.6,0.4,0.8c5,9.3,16.6,12.8,25.9,7.8
		c2.5-1.3,4.7-3.2,6.3-5.5c1.2-1.6,2.3-3.3,3.3-5.1c9-16,9.1-20.5,8.4-21.8C133.3,113.2,132.9,113,132.5,113z"/>
</g>

<!-- Android Icon -->
<g class="icon" id="android-dark">
	<path fill="#45609E" d="M53.7,90.9c5.1,0,9.3,4.2,9.3,9.3v39.8c0,5.1-4.2,9.3-9.3,9.3c-5.1,0-9.3-4.2-9.3-9.3v-39.8C44.5,95,48.6,90.9,53.7,90.9
		L53.7,90.9z"/>
	<path fill="#45609E" d="M32.6,43c0,0.4-0.1,0.7-0.1,1.1v60.3c0,6.5,5.1,11.7,11.5,11.7h61.3c6.4,0,11.5-5.2,11.5-11.7V44.1c0-0.4,0-0.7,0-1.1
		L32.6,43L32.6,43z"/>
	<path fill="#45609E" d="M95.6,90.9c5.1,0,9.3,4.2,9.3,9.3v39.8c0,5.1-4.2,9.3-9.3,9.3c-5.1,0-9.3-4.2-9.3-9.3v-39.8C86.3,95,90.4,90.9,95.6,90.9
		L95.6,90.9z"/>
	<path fill="#45609E" d="M17.6,48.4c5.1,0,9.3,4.2,9.3,9.3v39.8c0,5.1-4.2,9.3-9.3,9.3c-5.1,0-9.3-4.2-9.3-9.3V57.7C8.3,52.6,12.5,48.4,17.6,48.4
		L17.6,48.4z"/>
	<path fill="#45609E" d="M131.7,48.4c5.1,0,9.3,4.2,9.3,9.3v39.8c0,5.1-4.2,9.3-9.3,9.3c-5.1,0-9.3-4.2-9.3-9.3V57.7
		C122.4,52.6,126.6,48.4,131.7,48.4L131.7,48.4z"/>
	<path fill="#45609E" d="M79.3,3.4H70c-20.7,2-36.9,17.2-37.2,35.7h83.6C116.2,20.6,100,5.4,79.3,3.4z M62.2,22.5c0,2.6-2.1,4.7-4.8,4.7
		c-2.6,0-4.8-2.1-4.8-4.7v0c0-2.6,2.1-4.7,4.8-4.7C60,17.8,62.2,19.9,62.2,22.5L62.2,22.5z M98,22.5c0,2.6-2.1,4.7-4.8,4.7
		c-2.6,0-4.8-2.1-4.8-4.7v0c0-2.6,2.1-4.7,4.8-4.7C95.8,17.8,98,19.9,98,22.5L98,22.5z"/>
	<path fill="#45609E" d="M45.8,20c-0.5,0-1-0.3-1.3-0.7L34.8,2.3c-0.4-0.7-0.2-1.6,0.5-2c0.7-0.4,1.6-0.2,2,0.5l9.8,16.9c0.4,0.7,0.2,1.6-0.5,2
		C46.4,20,46.1,20,45.8,20z"/>
	<path fill="#45609E" d="M103.5,20c-0.3,0-0.5-0.1-0.7-0.2c-0.7-0.4-1-1.3-0.5-2L112,0.9c0.4-0.7,1.3-1,2-0.5c0.7,0.4,1,1.3,0.5,2l-9.8,16.9
		C104.5,19.8,104,20,103.5,20z"/>
</g>

<g class="icon" id="android-light">
	<path fill="#FFFFFF" d="M53.7,90.9c5.1,0,9.3,4.2,9.3,9.3v39.8c0,5.1-4.2,9.3-9.3,9.3c-5.1,0-9.3-4.2-9.3-9.3v-39.8C44.5,95,48.6,90.9,53.7,90.9
		L53.7,90.9z"/>
	<path fill="#FFFFFF" d="M32.6,43c0,0.4-0.1,0.7-0.1,1.1v60.3c0,6.5,5.1,11.7,11.5,11.7h61.3c6.4,0,11.5-5.2,11.5-11.7V44.1c0-0.4,0-0.7,0-1.1
		L32.6,43L32.6,43z"/>
	<path fill="#FFFFFF" d="M95.6,90.9c5.1,0,9.3,4.2,9.3,9.3v39.8c0,5.1-4.2,9.3-9.3,9.3c-5.1,0-9.3-4.2-9.3-9.3v-39.8C86.3,95,90.4,90.9,95.6,90.9
		L95.6,90.9z"/>
	<path fill="#FFFFFF" d="M17.6,48.4c5.1,0,9.3,4.2,9.3,9.3v39.8c0,5.1-4.2,9.3-9.3,9.3c-5.1,0-9.3-4.2-9.3-9.3V57.7C8.3,52.6,12.5,48.4,17.6,48.4
		L17.6,48.4z"/>
	<path fill="#FFFFFF" d="M131.7,48.4c5.1,0,9.3,4.2,9.3,9.3v39.8c0,5.1-4.2,9.3-9.3,9.3c-5.1,0-9.3-4.2-9.3-9.3V57.7
		C122.4,52.6,126.6,48.4,131.7,48.4L131.7,48.4z"/>
	<path fill="#FFFFFF" d="M79.3,3.4H70c-20.7,2-36.9,17.2-37.2,35.7h83.6C116.2,20.6,100,5.4,79.3,3.4z M62.2,22.5c0,2.6-2.1,4.7-4.8,4.7
		c-2.6,0-4.8-2.1-4.8-4.7v0c0-2.6,2.1-4.7,4.8-4.7C60,17.8,62.2,19.9,62.2,22.5L62.2,22.5z M98,22.5c0,2.6-2.1,4.7-4.8,4.7
		c-2.6,0-4.8-2.1-4.8-4.7v0c0-2.6,2.1-4.7,4.8-4.7C95.8,17.8,98,19.9,98,22.5L98,22.5z"/>
	<path fill="#FFFFFF" d="M45.8,20c-0.5,0-1-0.3-1.3-0.7L34.8,2.3c-0.4-0.7-0.2-1.6,0.5-2c0.7-0.4,1.6-0.2,2,0.5l9.8,16.9c0.4,0.7,0.2,1.6-0.5,2
		C46.4,20,46.1,20,45.8,20z"/>
	<path fill="#FFFFFF" d="M103.5,20c-0.3,0-0.5-0.1-0.7-0.2c-0.7-0.4-1-1.3-0.5-2L112,0.9c0.4-0.7,1.3-1,2-0.5c0.7,0.4,1,1.3,0.5,2l-9.8,16.9
		C104.5,19.8,104,20,103.5,20z"/>
</g>

<!-- Unknown Icon -->
<g class="icon" id="unknown-dark">
	<path fill="#45609E" d="M58.8,101.8c0-9.8,1.1-17.5,3.3-23.1c2.2-5.7,5.8-10.6,10.7-14.7c4.9-4.1,8.7-7.9,11.3-11.4c2.6-3.4,3.9-7.2,3.9-11.4
	c0-10.1-4.3-15.2-13-15.2c-4,0-7.3,1.5-9.7,4.4c-2.5,2.9-3.8,6.9-3.9,11.9H27.4c0.1-13.4,4.3-23.8,12.6-31.3C48.3,3.7,60,0,75,0
	c14.9,0,26.5,3.4,34.7,10.3c8.2,6.9,12.3,16.7,12.3,29.4c0,5.6-1.1,10.6-3.3,15.2c-2.2,4.5-5.8,9.2-10.6,13.9L96.4,79.6
	c-3.3,3.1-5.6,6.4-6.8,9.7c-1.3,3.3-2,7.5-2.1,12.6H58.8z M54.7,132.3c0-4.9,1.8-9,5.4-12.2c3.6-3.2,8-4.8,13.4-4.8
	c5.4,0,9.8,1.6,13.4,4.8c3.6,3.2,5.4,7.2,5.4,12.2c0,5-1.8,9-5.4,12.2c-3.6,3.2-8,4.8-13.4,4.8c-5.4,0-9.8-1.6-13.4-4.8
	C56.5,141.4,54.7,137.3,54.7,132.3z"/>
</g>

<g class="icon" id="unknown-light">
	<path fill="#FFFFFF" d="M58.8,101.8c0-9.8,1.1-17.5,3.3-23.1c2.2-5.7,5.8-10.6,10.7-14.7c4.9-4.1,8.7-7.9,11.3-11.4c2.6-3.4,3.9-7.2,3.9-11.4
	c0-10.1-4.3-15.2-13-15.2c-4,0-7.3,1.5-9.7,4.4c-2.5,2.9-3.8,6.9-3.9,11.9H27.4c0.1-13.4,4.3-23.8,12.6-31.3C48.3,3.7,60,0,75,0
	c14.9,0,26.5,3.4,34.7,10.3c8.2,6.9,12.3,16.7,12.3,29.4c0,5.6-1.1,10.6-3.3,15.2c-2.2,4.5-5.8,9.2-10.6,13.9L96.4,79.6
	c-3.3,3.1-5.6,6.4-6.8,9.7c-1.3,3.3-2,7.5-2.1,12.6H58.8z M54.7,132.3c0-4.9,1.8-9,5.4-12.2c3.6-3.2,8-4.8,13.4-4.8
	c5.4,0,9.8,1.6,13.4,4.8c3.6,3.2,5.4,7.2,5.4,12.2c0,5-1.8,9-5.4,12.2c-3.6,3.2-8,4.8-13.4,4.8c-5.4,0-9.8-1.6-13.4-4.8
	C56.5,141.4,54.7,137.3,54.7,132.3z"/>
</g>

</svg>
