<?xml version="1.0" encoding="utf-8"?>
<!-- Generator: Adobe Illustrator 24.0.0, SVG Export Plug-In . SVG Version: 6.00 Build 0)  -->
<svg version="1.1" id="Layer_1" xmlns="http://www.w3.org/2000/svg" xmlns:xlink="http://www.w3.org/1999/xlink" x="0px" y="0px"
	 viewBox="0 0 65.6 64" style="enable-background:new 0 0 65.6 64;" xml:space="preserve">
<style type="text/css">
	.st0{fill:#FFFFFF;}
</style>
<path class="st0" d="M47.25,26.91c-0.02,7.27,5.59,8.64,11.02,6.93c2.53-0.79,5.23-2.54,7.33-4.3v7.47
	C61.03,46.95,52.55,58.19,42.15,64H32.4c6.78-5.39,8.95-10.77,10.55-20.24c0.25-1.52,0.27-3.2-0.14-3.34
	c-0.54-0.19-1,0.74-1.82,2.21c-3.04,5.33-12.95,11.52-16.39,3.22c-2.64-6.39,6.7-12.12,8.71-21.06c0.26-1.16,0.36-1.76,0.21-2.17
	c-0.32-0.85-1.64,0.97-2.41,2.28C24.69,35.77,4.98,40.42,5.18,57.07c0.03,3.21,0.03,5.85-0.91,5.85c-0.81,0-1.61-4.45-1.9-5.77
	c-6.13-27.97,20.51-40.5,29.6-44.59C42.43,7.88,55.29,6.74,65.6,1.83v6.09C57.16,13.91,47.25,20.07,47.25,26.91z"/>
</svg>
